<?xml version="1.0" encoding="UTF-8" standalone="no"?>
<!-- Created with Inkscape (http://www.inkscape.org/) -->

<svg
   xmlns:dc="http://purl.org/dc/elements/1.1/"
   xmlns:cc="http://creativecommons.org/ns#"
   xmlns:rdf="http://www.w3.org/1999/02/22-rdf-syntax-ns#"
   xmlns:svg="http://www.w3.org/2000/svg"
   xmlns="http://www.w3.org/2000/svg"
   xmlns:xlink="http://www.w3.org/1999/xlink"
   xmlns:sodipodi="http://sodipodi.sourceforge.net/DTD/sodipodi-0.dtd"
   xmlns:inkscape="http://www.inkscape.org/namespaces/inkscape"
   width="640"
   height="640"
   id="svg2"
   version="1.1"
   inkscape:version="0.47 r22583"
   sodipodi:docname="icon-inspections.svg"
   inkscape:export-filename="/dati/linux1/P/enrico-qtcreator/src/plugins/inspector/images/icon-inspections-small.png"
   inkscape:export-xdpi="3.09375"
   inkscape:export-ydpi="3.09375">
  <defs
     id="defs4">
    <linearGradient
       inkscape:collect="always"
       id="linearGradient3606">
      <stop
         style="stop-color:#000000;stop-opacity:1;"
         offset="0"
         id="stop3608" />
      <stop
         style="stop-color:#000000;stop-opacity:0;"
         offset="1"
         id="stop3610" />
    </linearGradient>
    <linearGradient
       id="linearGradient3598">
      <stop
         style="stop-color:#ffffff;stop-opacity:1;"
         offset="0"
         id="stop3600" />
      <stop
         style="stop-color:#ffffff;stop-opacity:0;"
         offset="1"
         id="stop3602" />
    </linearGradient>
    <linearGradient
       inkscape:collect="always"
       xlink:href="#linearGradient3598"
       id="linearGradient3644"
       gradientUnits="userSpaceOnUse"
       gradientTransform="matrix(1.0238476,0,0,1.0751409,18.842326,-74.590748)"
       x1="684.85718"
       y1="492.8624"
       x2="684.85718"
       y2="747.89117" />
    <linearGradient
       inkscape:collect="always"
       xlink:href="#linearGradient3606"
       id="linearGradient3646"
       gradientUnits="userSpaceOnUse"
       gradientTransform="matrix(1.0238476,0,0,1.0751409,18.842326,-74.590748)"
       x1="684.85718"
       y1="460.34937"
       x2="684.85718"
       y2="747.89117" />
    <linearGradient
       inkscape:collect="always"
       xlink:href="#linearGradient3598"
       id="linearGradient3652"
       gradientUnits="userSpaceOnUse"
       gradientTransform="matrix(1.0969788,0,0,1.0682568,-9.3216959,-68.351198)"
       x1="684.85718"
       y1="492.8624"
       x2="684.85718"
       y2="747.89117" />
    <linearGradient
       inkscape:collect="always"
       xlink:href="#linearGradient3606"
       id="linearGradient3654"
       gradientUnits="userSpaceOnUse"
       gradientTransform="matrix(1.0969788,0,0,1.0682568,-9.3216959,-68.351198)"
       x1="684.85718"
       y1="460.34937"
       x2="684.85718"
       y2="747.89117" />
    <linearGradient
       inkscape:collect="always"
       xlink:href="#linearGradient3598"
       id="linearGradient3666"
       gradientUnits="userSpaceOnUse"
       gradientTransform="matrix(1.0238476,0,0,1.075141,18.842325,-74.590753)"
       x1="684.85718"
       y1="492.8624"
       x2="684.85718"
       y2="747.89117" />
    <linearGradient
       inkscape:collect="always"
       xlink:href="#linearGradient3606"
       id="linearGradient3668"
       gradientUnits="userSpaceOnUse"
       gradientTransform="matrix(1.0238476,0,0,1.075141,18.842325,-74.590753)"
       x1="684.85718"
       y1="460.34937"
       x2="684.85718"
       y2="747.89117" />
  </defs>
  <sodipodi:namedview
     id="base"
     pagecolor="#ffffff"
     bordercolor="#666666"
     borderopacity="1.0"
     inkscape:pageopacity="0.0"
     inkscape:pageshadow="2"
     inkscape:zoom="0.57421875"
     inkscape:cx="389.61036"
     inkscape:cy="339.00034"
     inkscape:document-units="px"
     inkscape:current-layer="layer1"
     showgrid="false"
     inkscape:window-width="1280"
     inkscape:window-height="977"
     inkscape:window-x="0"
     inkscape:window-y="-3"
     inkscape:window-maximized="1" />
  <metadata
     id="metadata7">
    <rdf:RDF>
      <cc:Work
         rdf:about="">
        <dc:format>image/svg+xml</dc:format>
        <dc:type
           rdf:resource="http://purl.org/dc/dcmitype/StillImage" />
        <dc:title></dc:title>
      </cc:Work>
    </rdf:RDF>
  </metadata>
  <g
     inkscape:label="Layer 1"
     inkscape:groupmode="layer"
     id="layer1"
     transform="translate(-93.142863,-76.36213)">
    <rect
       style="fill:url(#linearGradient3666);fill-opacity:1;stroke:url(#linearGradient3668);stroke-width:32;stroke-linecap:butt;stroke-linejoin:round;stroke-miterlimit:4;stroke-opacity:1;stroke-dasharray:none;stroke-dashoffset:2.39999999999999991"
       id="rect2816"
       width="560.00043"
       height="799.99945"
       x="133.14265"
       y="96.362427"
       rx="96.031387"
       ry="94.447533"
       inkscape:export-xdpi="3.09375"
       inkscape:export-ydpi="3.09375" />
    <path
       style="fill:#999999;fill-opacity:1;stroke:none"
       id="path3626"
       d="m 181.07713,255.47632 c 6.69249,1.72474 13.49765,1.81326 20.24565,2.49012 16.34811,1.33006 32.70877,1.93624 49.07223,2.05014 24.98012,-0.0983 49.9556,-1.24823 74.92427,-2.53648 26.98868,-1.39763 53.98418,-2.24393 80.98191,-2.77926 26.02101,-0.60531 52.04334,-0.95929 78.05821,-2.18585 23.21708,-1.05708 46.40239,-3.59119 69.57213,-6.37684 20.04379,-2.17965 40.01924,-5.76301 59.95255,-10.07548 7.24539,-1.55841 14.45658,-3.60399 21.69313,-5.27856 2.34119,-0.54177 7.51215,-1.8872 10.09547,-1.19697 1.07384,0.28692 2.03359,1.37216 3.05038,2.05826 1.67621,7.15916 1.29982,3.19994 0.65388,11.99331 0,0 -0.71721,1.43063 -0.71721,1.43063 l 0,0 c -6.72977,6.09541 -3.31524,3.32054 -10.24014,8.33846 -1.61242,0.67833 -3.20548,1.52927 -4.83724,2.03494 -2.85595,0.88507 -7.33532,1.24998 -10.17203,1.62118 -6.88728,0.90127 -13.76336,2.04767 -20.64899,2.98756 -19.65178,2.94126 -39.30928,5.85765 -58.99926,7.83641 -22.94274,2.21939 -45.89303,4.40106 -68.87421,4.71036 -25.85639,0.41557 -51.71341,0.70473 -77.56981,1.12483 -26.91265,0.5333 -53.82907,0.84665 -80.7327,2.31891 -25.38713,1.34142 -50.76122,3.3044 -76.14025,5.06203 -17.17686,1.0426 -34.3509,2.27054 -51.53312,2.99397 -7.10602,0.24214 -14.17654,0.0438 -21.26554,-0.89191 0,0 13.43069,-27.72976 13.43069,-27.72976 z" />
    <path
       style="fill:#999999;fill-opacity:1;stroke:none"
       id="path3628"
       d="m 190.55394,407.08877 c 6.32531,0.86979 12.61221,2.51717 18.9108,3.86113 17.11842,3.84006 34.32615,5.99227 51.53984,7.82088 27.66498,2.71094 55.37006,3.86723 83.06495,5.10978 36.18584,1.44304 72.38226,1.59669 108.57492,1.9617 35.69419,-0.25637 71.37799,0.86548 107.06485,1.89121 15.12849,0.47899 30.26686,1.67124 45.35599,3.74209 4.30833,0.59128 8.60831,1.36951 12.90843,2.13088 3.93276,0.69633 7.84499,1.8183 11.78965,2.24213 3.85672,0.41437 7.72646,0.17984 11.5897,0.26976 3.44779,0.12211 6.89559,0.2441 10.34339,0.36614 0,0 -0.6959,1.4645 -0.6959,1.4645 l 0,0 c -3.44761,-0.12177 -6.89523,-0.24353 -10.34284,-0.36528 -3.86313,-0.0898 -7.72819,-0.5076 -11.58939,-0.26928 -4.58352,0.2829 -9.14566,1.26498 -13.72111,1.83149 -4.90539,0.60736 -9.81035,1.24204 -14.72099,1.69005 -16.01035,1.46065 -32.05555,2.14685 -48.08524,2.01095 -35.77678,-0.32774 -71.5535,-0.32919 -107.32811,-1.31856 -36.59461,-0.28272 -73.18923,-0.13474 -109.78237,0.57766 -28.5184,0.48878 -57.03929,0.91954 -85.55684,-0.008 -18.12717,-0.73359 -36.25577,-1.29684 -54.38222,-2.06396 -6.76843,-0.407 -13.53645,-0.66962 -20.30837,-0.62986 0,0 15.37086,-32.31488 15.37086,-32.31488 z" />
    <path
       style="fill:#999999;fill-opacity:1;stroke:none"
       id="path3630"
       d="m 199.41218,589.05104 c 5.80223,4.95066 12.27791,6.1072 18.56174,7.58613 17.06222,3.01838 34.24655,3.13252 51.37581,3.75149 28.4053,0.42549 56.81136,0.61876 85.21686,0.97821 36.29966,0.442 72.5973,-0.41653 108.89734,-0.45127 37.52475,-0.19912 75.04449,-0.31309 112.55835,1.47103 16.40253,0.80817 32.84616,2.64287 49.00178,8.11758 4.4792,1.51789 8.81905,4.30702 13.32817,5.50224 4.53691,1.20258 9.15045,1.11256 13.72568,1.66885 0,0 -0.69976,1.4585 -0.69976,1.4585 l 0,0 c -4.57505,-0.55602 -9.13993,-1.74255 -13.72517,-1.66804 -5.67893,0.0923 -11.32356,1.63597 -16.99508,2.1672 -17.6837,1.65631 -35.40502,1.46304 -53.0987,0.55785 -37.48459,-1.1024 -74.97364,-1.77492 -112.46376,-1.5932 -36.20922,-0.0101 -72.4178,-0.84911 -108.62581,-0.11386 -28.88472,0.6346 -57.76832,1.39059 -86.65267,2.03769 -17.79224,0.49099 -35.58691,0.896 -53.37895,0.0677 -6.93681,-0.57779 -14.1596,-0.87033 -20.7401,-5.2907 0,0 13.71427,-26.24729 13.71427,-26.24729 z" />
    <path
       style="fill:#d40000;fill-opacity:1;stroke:none"
       id="path3636"
       d="m 254.07692,150.08325 c -7.35241,8.2538 -12.66083,16.94884 -16.46968,25.82812 -0.4118,3.56713 -5.58072,10.91555 -2.96319,14.36457 1.11346,1.46715 1.96839,0.66073 3.00764,0.16808 8.4769,-12.81004 46.73764,-25.21343 -47.02625,22.37505 -2.01213,1.02122 3.66584,-2.22263 5.427,-3.36535 0.7934,-0.51478 11.49601,-7.78711 12.00043,-8.12955 23.05515,-15.32721 50.82491,-28.57574 77.33446,-42.14242 4.27738,-2.18901 6.38934,-2.42714 11.54534,-3.65111 1.9186,0.1243 3.99721,-0.0498 5.75576,0.37301 13.31377,3.20162 10.88403,14.88783 11.18172,20.95416 1.20604,4.58799 -1.60038,9.33122 -0.35758,13.90887 0.93406,3.44044 3.25231,2.57563 5.39171,0.59617 40.97292,-23.95872 -72.88279,39.06412 -31.46633,15.35171 3.07475,-1.7604 6.09371,-3.54779 9.17954,-5.30279 3.01542,-1.71494 6.08246,-3.40447 9.12367,-5.10671 24.13803,-13.60033 30.41754,-17.24069 70.05954,-36.74503 4.45257,-2.19073 9.74591,-2.31814 14.1257,0.0786 5.28036,2.88962 4.8894,6.75115 5.72825,10.35469 1.46074,7.63237 -1.54225,15.18138 -2.42577,22.76138 -2.41578,4.0195 1.06708,7.94666 0.81087,11.92038 -0.12336,1.91487 -1.13412,3.78506 -1.70115,5.67759 -2.50669,8.23157 -5.61721,6.78423 9.57315,4.19343 0,0 -2.27818,1.51016 -2.27818,1.51016 l 0,0 c -20.50214,4.3906 -8.87878,1.54821 -34.24538,9.20337 -5.1628,0.43083 -10.33844,1.76398 -15.48846,1.29248 -13.45078,-1.23146 -17.9008,-21.00751 -19.03146,-26.45698 -0.55606,-1.39451 -1.11207,-2.78905 -1.66809,-4.18356 -0.18058,-0.5222 -0.34295,-1.04622 -0.54134,-1.56661 -0.19242,-0.50497 -3.26801,1.09413 -2.59278,0.72174 31.51267,-17.3791 71.69935,-38.02646 42.73631,-23.10458 -8.27224,4.81553 -16.13654,9.96502 -24.73104,14.61186 -21.70119,11.73335 -43.49882,23.41899 -65.59723,34.94463 -2.44013,1.27266 -5.01811,2.51674 -7.98091,3.43079 -2.29653,0.7085 -5.03575,0.90784 -7.55365,1.36176 -2.12882,-0.45404 -4.58374,-0.61234 -6.38648,-1.36209 -7.10736,-2.95601 -6.15034,-15.07862 -6.30156,-19.29369 -0.0942,-1.58467 -1.07648,-14.82785 -3.70704,-15.65465 -0.30108,-0.0947 -0.69118,0.0621 -1.03679,0.0931 -19.06045,4.35811 -73.42247,37.95751 42.20884,-23.65222 2.04213,-1.08806 -4.15207,2.14144 -6.14261,3.25572 -4.43834,2.48453 -8.62585,5.1546 -12.81258,7.753 -27.71667,19.02801 -23.17783,16.38616 -74.704,42.4537 -1.26807,0.64152 -3.15614,1.02509 -4.91375,1.00899 -1.63308,-0.0152 -2.95849,-0.72978 -4.43773,-1.09467 -1.00085,-0.63944 -2.30541,-1.1753 -3.00251,-1.91832 -0.72213,-0.7697 -0.81277,-1.66362 -1.14648,-2.50404 -1.97942,-4.98477 -2.24449,-9.87147 -0.0527,-14.88508 3.61058,-8.99789 7.67896,-18.01276 14.9934,-26.40884 0,0 58.57954,-24.01899 58.57954,-24.01899 z" />
    <path
       style="fill:#d40000;fill-opacity:1;stroke:none"
       id="path3638"
       d="m 408.78279,167.00615 c 2.71672,6.28172 5.848,7.74082 10.09817,7.36801 3.09863,0.18211 6.95638,-5.29214 9.84797,-2.72315 0.5522,0.49058 0.97882,1.34713 1.46822,2.02068 2.34192,5.48191 3.96591,11.84263 8.33746,12.26887 1.08168,0.10543 2.16075,-0.28551 3.24112,-0.42827 3.3492,-1.02024 6.91715,-1.46094 10.1062,-3.77992 2.23604,-1.62598 5.50764,-5.3801 7.67338,-7.30742 1.04978,-0.93421 2.15061,-1.66867 3.22592,-2.50299 0.78683,0.0586 1.61733,-0.29448 2.36049,0.17563 3.09574,1.95833 2.58675,8.7034 3.49901,12.98854 0.20145,0.94628 0.61929,1.69162 0.92894,2.53742 1.30824,1.24732 1.69229,1.95884 3.3061,1.90941 4.91839,-0.15058 9.94166,-4.54338 14.42408,-7.66399 5.57228,-2.72367 11.02212,-9.63653 17.01038,-8.96306 0.73818,0.083 1.45418,0.4891 2.18127,0.73364 4.78606,3.63242 8.63418,1.46742 13.38794,-0.92658 2.97167,-1.22765 7.63879,-5.60861 10.71025,-3.06548 1.29474,1.07204 2.11223,4.59167 2.71506,6.59523 2.62509,11.80958 6.3328,10.07126 12.45375,9.73466 7.02188,-1.75528 13.93182,-4.65234 20.79269,-7.81825 1.98574,-0.91632 3.94693,-2.01936 5.95261,-2.78124 1.889,-0.71755 3.81224,-1.10141 5.71836,-1.65209 5.93,-2.47298 11.57973,-0.33366 17.3966,1.83008 2.1882,0.81397 4.54167,0.79603 6.55084,2.55944 1.98195,1.73955 3.38406,5.09693 5.0761,7.6454 2.46509,1.64536 4.93017,3.29072 7.39527,4.93608 0,0 -0.69833,1.46072 -0.69833,1.46072 l 0,0 c -3.7886,1.0846 -7.5979,1.95532 -11.36578,3.25382 -3.71143,1.27904 -7.29746,3.8675 -11.06093,4.47493 -2.37234,0.38291 -4.73785,-0.91516 -7.09398,-1.54461 -5.10072,-1.36268 -10.14485,-3.47716 -15.22899,-5.02019 -4.94589,0.91811 -6.05961,0.65278 -10.98194,3.66321 -9.65316,5.90373 -18.161,16.53262 -27.77081,22.63108 -1.87213,1.00112 -3.68601,2.47329 -5.61639,3.00332 -1.35431,0.37186 -2.76668,0.18949 -4.10551,-0.33392 -4.50072,-1.75955 -5.25207,-8.85149 -5.78563,-15.88637 -0.0348,-0.5757 -0.36849,-8.29782 -0.5637,-8.8234 -1.18386,-3.18736 -5.11363,1.04037 -6.14312,1.47013 -5.17742,3.67964 -10.22024,6.35618 -15.70928,3.15397 -6.08849,-1.56143 -11.69162,2.23338 -17.15849,6.92248 -4.6346,3.4107 -14.04511,11.69379 -19.01873,6.99218 -0.70411,-0.66561 -1.14981,-1.98109 -1.72471,-2.97162 -0.66951,-2.51676 -1.27461,-4.46489 -1.66852,-7.17189 -0.37425,-2.57204 -0.002,-5.97824 -0.59235,-8.39312 -0.138,-0.56476 -0.42755,-0.96365 -0.64133,-1.4455 -0.40006,-0.37621 -0.75236,-1.03033 -1.20019,-1.12863 -1.7572,-0.38571 -4.21025,1.52158 -5.58281,2.72981 -4.88972,4.30434 -9.33312,10.42135 -14.73374,12.71497 -1.32976,0.2657 -2.65159,0.75763 -3.9893,0.79711 -4.38098,0.12918 -8.40934,-3.26656 -11.76196,-8.11572 -2.7709,-2.93475 -5.71545,-1.35857 -8.76763,-0.81384 -4.54751,-0.23929 -8.7202,-2.1905 -12.45159,-7.10045 0,0 15.55756,-28.20912 15.55756,-28.20912 z" />
    <path
       style="fill:#d40000;fill-opacity:1;stroke:none"
       id="path3644"
       d="m 225.35428,335.81514 c -1.95011,5.56054 -5.76377,11.07444 -6.04818,16.78491 2.28212,1.40993 1.43189,-2.33416 1.90249,-2.96757 0.65891,-0.88686 4.02703,-3.05167 2.8283,-2.38448 -43.6662,24.30378 -57.97092,36.37813 -41.54586,22.94614 0.22806,-0.6434 0.30409,-1.31169 0.68398,-1.93018 0.23817,-0.38754 3.16578,-3.90012 3.89236,-4.33648 21.46597,-12.89212 40.9723,-27.09511 65.07923,-38.2862 2.8438,-1.32018 6.14895,2.57792 7.72538,4.48832 1.03419,1.25328 -0.39333,2.77245 -0.59001,4.15866 -2.48937,5.74496 -5.23532,11.44807 -8.13604,17.12646 -2.14572,4.20038 -5.05248,8.09299 -3.84842,12.49655 0.28233,-0.23716 0.96901,-0.43163 0.84697,-0.71146 -8.91144,-20.43306 -56.17058,26.96978 -59.96163,29.02925 -1.87621,1.01924 2.88453,-2.47619 4.16883,-3.77062 1.12429,-1.13314 6.40366,-7.27574 7.42039,-8.45073 0.9129,-1.12897 2.01918,-2.21129 2.73871,-3.38689 0.31483,-0.51438 -0.32827,-1.23899 0.33025,-1.62725 22.83201,-13.46175 51.64467,-49.73381 74.73694,-36.42401 3.12165,1.79924 5.47147,5.42908 7.18894,7.65883 3.53315,4.95323 7.0178,16.07733 19.691,15.79825 1.66598,-0.0367 3.18577,-0.57412 4.77865,-0.86117 1.62715,-0.67359 3.35121,-1.27384 4.88142,-2.02076 4.68653,-2.28754 17.67016,-10.46098 10.91122,-6.58853 -94.23885,53.99281 -62.63228,38.91228 -45.88907,25.6157 -27.2228,-7.61725 50.44739,-48.42061 75.3352,-34.68797 3.52609,1.94565 6.12502,4.58997 9.42368,6.68766 2.4759,0.76286 4.21604,1.55817 7.16699,1.49575 6.38623,-0.13507 13.70538,-2.29189 19.38949,-3.79001 2.47208,-0.59631 8.38304,-2.22855 11.29077,-2.12823 6.79025,0.23423 10.84049,4.59229 12.26532,7.82299 -0.13395,0.87726 0.21016,1.82662 -0.40168,2.6318 -1.45645,1.91702 -3.65924,3.61251 -5.66454,5.3527 -4.23465,3.67484 -8.69912,7.25773 -13.0487,10.88661 0,0 -2.11987,1.48057 -2.11987,1.48057 l 0,0 c -11.21679,5.81882 -20.50685,12.5422 -35.06564,15.37337 -1.91489,0.37237 -4.02977,-0.14029 -6.04466,-0.21044 -6.25046,-1.77989 -6.11119,-3.64365 -13.68907,-2.31826 -13.43337,3.07903 -25.07016,6.75247 -38.33467,0.97451 -8.39664,-4.38317 -0.24569,0.018 -7.14225,-4.08967 -0.66899,-0.39848 -1.32281,-0.81947 -2.12118,-1.12634 -0.56117,-0.21571 -0.90534,0.78036 -0.74177,0.68514 19.71362,-11.47518 39.18501,-23.09115 58.77753,-34.63673 -17.36231,9.45867 7.73757,-4.46663 -9.62999,6.05329 -21.15683,12.81517 -42.48037,25.53697 -63.91897,38.19173 -4.01335,2.36899 -9.21966,4.96917 -14.4775,6.38654 -2.62675,0.70809 -5.52886,0.99748 -8.2933,1.49623 -2.65235,-0.12985 -5.38973,0.0204 -7.9571,-0.38936 -13.26404,-2.11665 -20.19516,-10.87609 -27.4064,-16.85019 -4.74238,-4.82455 -1.26071,-1.60135 -4.64039,-4.31077 -0.34584,-0.27725 0.66897,1.04748 1.09043,0.80845 21.44259,-12.1617 42.10322,-24.78411 63.09312,-37.21171 3.33084,-1.97212 -13.94942,7.43062 -8.8128,6.52339 -19.45325,23.9489 -21.55134,23.88553 -74.65412,50.93583 -2.0182,1.02808 -5.45215,-0.6857 -7.49128,-1.69965 -1.30473,-0.64875 -1.0962,-1.89528 -1.64433,-2.84294 1.31331,-9.21055 2.12562,-18.42872 5.39707,-27.5042 4.08101,-6.65211 -5.7982,7.77466 7.98,0.94516 22.42177,-11.11388 41.13804,-24.54686 61.88863,-36.71549 1.28927,-0.75605 -2.34497,1.63661 -3.48883,2.46848 -9.49573,6.90573 -1.29635,1.27228 -13.39513,9.30491 -20.50356,15.58973 -8.37683,6.71227 -59.56377,36.29839 -5.88339,3.40064 -13.46155,1.31319 -12.77491,-3.39493 0.63774,-5.85465 2.37061,-11.59939 4.95781,-17.27514 0,0 50.68096,-23.97821 50.68096,-23.97821 z" />
    <path
       style="fill:#d40000;fill-opacity:1;stroke:none"
       id="path3646"
       d="m 205.45187,486.08072 c -0.66823,18.87943 -1.28339,37.74974 -1.63287,56.64603 -0.14498,5.49229 -0.81417,12.18547 0.58442,17.67174 0.1719,0.67428 1.93652,5.60029 3.60454,3.24477 0.69023,-0.97474 1.91961,-4.62081 1.1651,-3.73871 -6.88194,8.04573 -13.17211,16.98398 -19.75816,25.47597 10.48407,-20.20706 18.99016,-42.41144 26.2931,-65.04764 5.52684,-20.12806 11.21649,-23.18639 30.37606,-41.60086 2.66231,-2.55876 3.9659,17.46612 4.01489,17.98181 1.06548,6.30578 0.0725,26.54047 5.83817,28.98867 0.66148,0.28087 1.37995,-0.17415 2.06993,-0.26122 5.64612,-2.91144 10.20637,-11.24849 16.19094,-12.76584 1.18255,-0.29983 2.40487,0.0915 3.60732,0.13727 6.35391,3.18489 8.55986,11.18927 11.11692,18.94812 1.71916,5.21644 2.40943,6.73793 4.36254,11.63354 0.12128,9.01145 -0.48158,5.00491 1.31251,12.13836 0,0 -0.91153,1.47746 -0.91153,1.47746 l 0,0 c -11.11843,7.81309 -5.43477,4.60813 -17.01938,9.71785 -1.79424,-0.6831 -3.67574,-1.03319 -5.38272,-2.04933 -2.00631,-1.19434 -6.62595,-5.89591 -8.28369,-7.9158 -2.4348,-2.96668 -4.16874,-6.92146 -7.54003,-8.0829 -0.79106,0.144 -1.60815,0.12262 -2.37316,0.43212 -6.37626,2.57888 -10.77455,11.31836 -17.85508,11.02327 -1.09356,-0.63708 -2.34988,-0.90326 -3.28069,-1.91126 -4.53866,-4.9151 -6.89515,-22.56149 -8.10078,-29.95104 -3.33912,-21.17178 0.92952,4.72465 -1.96411,-10.15226 -0.0311,-0.1595 0.0421,-0.34653 0.1277,-0.46336 8.30074,-11.33076 16.73984,-22.47335 25.00817,-33.84792 2.39684,-3.29726 -13.39212,16.10331 -6.68056,10.53322 -8.93793,21.15649 -16.27737,43.47723 -24.99857,64.80277 -8.92916,12.47418 -17.28631,25.75722 -26.7875,37.42257 -2.61874,3.21525 -5.40284,0.0723 -6.16186,-3.03229 -0.49883,-2.04027 -0.30304,-4.28075 -0.43695,-6.42324 -0.79205,-12.67223 -0.0551,-3.80066 -1.36053,-17.34811 -0.54674,-17.11098 -0.0247,-34.46136 -2.24973,-51.37022 0,0 27.10559,-32.31346 27.10559,-32.31346 z" />
    <path
       style="fill:#d40000;fill-opacity:1;stroke:none"
       id="path3648"
       d="m 307.89577,541.62923 c 2.66876,5.12531 0.85598,0.30409 0.71521,11.07 -0.0362,2.77177 0.27468,5.52289 0.41203,8.28433 0,0 -0.72533,1.41726 -0.72533,1.41726 l 0,0 c -2.15232,1.07258 -4.31482,2.08079 -6.45697,3.21775 -6.7142,3.56363 -3.90888,4.89335 -7.88509,1.56671 0,0 13.94015,-25.55605 13.94015,-25.55605 z" />
    <path
       style="fill:#aa0000;fill-opacity:1;stroke:none"
       id="path3650"
       d="m 338.89442,520.00689 c 9.12955,-17.56971 17.6276,-35.45749 29.30402,-46.97261 6.07698,-4.32858 9.56205,-0.17987 13.30585,8.45714 2.96495,8.75288 3.58581,19.05112 5.07856,28.75262 0.76465,4.77288 1.34846,6.94646 3.97507,4.69471 3.02542,-2.68034 4.81878,-0.93348 6.78639,3.64369 1.1063,3.13311 1.87202,12.51039 4.26213,13.14994 0.53808,0.14401 1.08023,-0.23298 1.62034,-0.34945 7.16604,-4.51411 13.73703,-11.55055 20.7588,-16.75316 1.1187,-0.42783 2.21357,-1.19609 3.35608,-1.28351 4.52475,-0.34615 6.38871,6.35164 8.90341,11.71115 0.57292,1.22104 1.23284,2.29998 1.84926,3.44996 0.74935,0.75604 1.43511,1.76999 2.24804,2.2681 5.2891,3.24074 12.81752,-3.26035 17.66732,-6.6278 3.2221,-2.15266 6.73054,-5.05811 10.24754,-3.0558 3.12712,1.78034 5.25943,7.10796 7.39237,11.21297 0.89343,1.3994 1.69108,3.02725 2.68028,4.19822 7.77072,9.19858 17.86331,3.87785 26.13218,0.61232 9.10166,-3.83486 18.03429,-9.81379 27.44203,-10.87922 5.06961,-0.57415 6.23018,0.24046 11.11741,1.64455 7.08024,3.35972 14.01655,7.62085 21.36566,8.69393 4.4431,0.64875 9.17942,0.31288 13.61976,0.18833 6.79276,0.72383 13.69592,-0.9903 20.47917,0.1882 1.88253,0.32705 4.29679,-0.60618 5.57402,1.91077 10.32544,20.3476 -7.96861,4.51266 5.34031,14.11826 0,0 -0.72024,1.42565 -0.72024,1.42565 l 0,0 c -9.32272,-4.63635 -0.87557,-2.39703 -14.65591,5.66959 -2.29969,1.34618 -4.79036,1.20164 -7.17115,1.96089 -8.76496,2.79523 -17.2751,7.332 -25.85831,11.50859 -6.95212,2.43755 -9.51459,3.88468 -16.45735,4.3033 -7.78411,0.46936 -15.18668,-3.03312 -22.60967,-6.78978 -4.42147,-1.2523 -5.44006,-1.92117 -10.00991,-1.62328 -9.12917,0.59509 -17.88475,6.14149 -26.65697,10.14758 -8.31168,3.57086 -17.3448,8.21467 -25.79469,2.99099 -3.00386,-1.85697 -4.77124,-4.54257 -7.28732,-7.74042 -1.716,-2.65734 -3.7671,-6.76319 -6.11891,-7.68956 -2.72613,-1.07382 -5.53983,1.28502 -8.09497,2.46261 -6.37996,3.90804 -13.83491,9.95752 -20.50924,4.48584 -1.01184,-0.82953 -1.86424,-2.18426 -2.79636,-3.27639 -0.72347,-1.25696 -1.47234,-2.46798 -2.17043,-3.77088 -3.07527,-5.73961 -3.55057,-8.87931 -8.44336,-7.15321 -3.62384,2.03615 -2.8512,1.35937 -6.64794,4.67722 -3.95235,3.4538 -7.82046,8.01357 -12.1197,10.00955 -1.13163,0.52537 -2.31627,0.55983 -3.47441,0.83976 -0.91592,-0.47649 -1.89132,-0.67425 -2.74775,-1.42947 -3.07857,-2.7147 -3.87096,-8.95723 -5.37109,-13.90468 -1.0552,-2.74825 -2.04733,-1.28009 -3.73504,-1.77928 -3.51711,-1.90323 -4.18914,-7.24367 -5.05503,-13.09406 -0.94968,-9.44953 -1.68911,-19.14262 -3.95389,-27.93137 -2.28286,-7.00696 -4.08726,-10.11547 -8.66932,-7.07381 -9.2741,8.46675 -25.15824,42.122 6.35511,-16.15016 0,0 -19.73215,25.95147 -19.73215,25.95147 z" />
  </g>
</svg>
