<?xml version="1.0" encoding="UTF-8" standalone="no"?>
<!-- Created with Inkscape (http://www.inkscape.org/) -->

<svg
   xmlns:dc="http://purl.org/dc/elements/1.1/"
   xmlns:cc="http://creativecommons.org/ns#"
   xmlns:rdf="http://www.w3.org/1999/02/22-rdf-syntax-ns#"
   xmlns:svg="http://www.w3.org/2000/svg"
   xmlns="http://www.w3.org/2000/svg"
   xmlns:xlink="http://www.w3.org/1999/xlink"
   xmlns:sodipodi="http://sodipodi.sourceforge.net/DTD/sodipodi-0.dtd"
   xmlns:inkscape="http://www.inkscape.org/namespaces/inkscape"
   width="616.63837"
   height="501.40649"
   id="svg2"
   version="1.1"
   inkscape:version="0.47 r22583"
   sodipodi:docname="inspector-icon.svg"
   inkscape:export-filename="inspector-icon-32.png"
   inkscape:export-xdpi="4.6700001"
   inkscape:export-ydpi="4.6700001">
  <defs
     id="defs4">
    <linearGradient
       id="linearGradient4492">
      <stop
         style="stop-color:#e8eee6;stop-opacity:1;"
         offset="0"
         id="stop4494" />
      <stop
         style="stop-color:#e8eee6;stop-opacity:1;"
         offset="1"
         id="stop4496" />
    </linearGradient>
    <linearGradient
       id="linearGradient3983">
      <stop
         style="stop-color:#7c7c7c;stop-opacity:1;"
         offset="0"
         id="stop3985" />
      <stop
         id="stop3991"
         offset="0.60714287"
         style="stop-color:#dfdfdf;stop-opacity:1;" />
      <stop
         style="stop-color:#818181;stop-opacity:1;"
         offset="1"
         id="stop3987" />
    </linearGradient>
    <linearGradient
       inkscape:collect="always"
       id="linearGradient3662">
      <stop
         style="stop-color:#b8b8b8;stop-opacity:1;"
         offset="0"
         id="stop3664" />
      <stop
         style="stop-color:#b8b8b8;stop-opacity:0;"
         offset="1"
         id="stop3666" />
    </linearGradient>
    <linearGradient
       inkscape:collect="always"
       id="linearGradient3654">
      <stop
         style="stop-color:#aaaaaa;stop-opacity:1;"
         offset="0"
         id="stop3656" />
      <stop
         style="stop-color:#aaaaaa;stop-opacity:0;"
         offset="1"
         id="stop3658" />
    </linearGradient>
    <filter
       inkscape:collect="always"
       id="filter3841"
       x="-0.1691912"
       width="1.3383824"
       y="-1.9901522"
       height="4.9803047"
       color-interpolation-filters="sRGB">
      <feGaussianBlur
         inkscape:collect="always"
         stdDeviation="4.235235"
         id="feGaussianBlur3843" />
    </filter>
    <filter
       inkscape:collect="always"
       id="filter3845"
       x="-1.0441947"
       width="3.0883894"
       y="-0.17485557"
       height="1.3497111"
       color-interpolation-filters="sRGB">
      <feGaussianBlur
         inkscape:collect="always"
         stdDeviation="4.235235"
         id="feGaussianBlur3847" />
    </filter>
    <filter
       inkscape:collect="always"
       id="filter3849"
       x="-0.19689482"
       width="1.3937896"
       y="-1.6372303"
       height="4.2744608"
       color-interpolation-filters="sRGB">
      <feGaussianBlur
         inkscape:collect="always"
         stdDeviation="4.235235"
         id="feGaussianBlur3851" />
    </filter>
    <filter
       inkscape:collect="always"
       id="filter3853"
       x="-1.1446682"
       width="3.2893364"
       y="-0.14934278"
       height="1.2986856"
       color-interpolation-filters="sRGB">
      <feGaussianBlur
         inkscape:collect="always"
         stdDeviation="4.235235"
         id="feGaussianBlur3855" />
    </filter>
    <filter
       inkscape:collect="always"
       id="filter3857"
       x="-0.22070862"
       width="1.4414173"
       y="-1.5605887"
       height="4.1211772"
       color-interpolation-filters="sRGB">
      <feGaussianBlur
         inkscape:collect="always"
         stdDeviation="4.235235"
         id="feGaussianBlur3859" />
    </filter>
    <filter
       inkscape:collect="always"
       id="filter3861"
       x="-1.4440452"
       width="3.8880906"
       y="-0.15968429"
       height="1.3193686"
       color-interpolation-filters="sRGB">
      <feGaussianBlur
         inkscape:collect="always"
         stdDeviation="4.235235"
         id="feGaussianBlur3863" />
    </filter>
    <filter
       inkscape:collect="always"
       id="filter3865"
       x="-0.11757442"
       width="1.2351488"
       y="-0.97290057"
       height="2.945801"
       color-interpolation-filters="sRGB">
      <feGaussianBlur
         inkscape:collect="always"
         stdDeviation="4.235235"
         id="feGaussianBlur3867" />
    </filter>
    <filter
       inkscape:collect="always"
       id="filter3869"
       x="-1.3190989"
       width="3.6381979"
       y="-0.14244141"
       height="1.2848828"
       color-interpolation-filters="sRGB">
      <feGaussianBlur
         inkscape:collect="always"
         stdDeviation="4.235235"
         id="feGaussianBlur3871" />
    </filter>
    <filter
       inkscape:collect="always"
       id="filter3873"
       x="-0.23097681"
       width="1.4619536"
       y="-1.0142232"
       height="3.0284462"
       color-interpolation-filters="sRGB">
      <feGaussianBlur
         inkscape:collect="always"
         stdDeviation="4.235235"
         id="feGaussianBlur3875" />
    </filter>
    <filter
       inkscape:collect="always"
       id="filter3977"
       color-interpolation-filters="sRGB">
      <feGaussianBlur
         inkscape:collect="always"
         stdDeviation="4.6468216"
         id="feGaussianBlur3979" />
    </filter>
    <linearGradient
       inkscape:collect="always"
       xlink:href="#linearGradient3662"
       id="linearGradient4080"
       gradientUnits="userSpaceOnUse"
       x1="504.5"
       y1="296.59448"
       x2="605.97705"
       y2="297.9086" />
    <linearGradient
       inkscape:collect="always"
       xlink:href="#linearGradient3654"
       id="linearGradient4082"
       gradientUnits="userSpaceOnUse"
       x1="553.34564"
       y1="279.06885"
       x2="533.83606"
       y2="342.8605" />
    <linearGradient
       inkscape:collect="always"
       xlink:href="#linearGradient3983"
       id="linearGradient4486"
       gradientUnits="userSpaceOnUse"
       x1="310"
       y1="194.09448"
       x2="310"
       y2="214.09448" />
    <linearGradient
       inkscape:collect="always"
       xlink:href="#linearGradient3983"
       id="linearGradient4488"
       gradientUnits="userSpaceOnUse"
       x1="310"
       y1="194.09448"
       x2="310"
       y2="214.09448" />
    <linearGradient
       inkscape:collect="always"
       xlink:href="#linearGradient3983"
       id="linearGradient4490"
       gradientUnits="userSpaceOnUse"
       gradientTransform="matrix(0,0.5,-0.44124318,0,440.54,466.23394)"
       x1="310"
       y1="194.09448"
       x2="310"
       y2="214.09448" />
    <radialGradient
       inkscape:collect="always"
       xlink:href="#linearGradient4492"
       id="radialGradient4498"
       cx="350.41257"
       cy="463.04285"
       fx="350.41257"
       fy="463.04285"
       r="151.29004"
       gradientTransform="matrix(1,0,0,0.95969218,0,18.664247)"
       gradientUnits="userSpaceOnUse" />
    <filter
       inkscape:collect="always"
       id="filter4500"
       color-interpolation-filters="sRGB">
      <feGaussianBlur
         inkscape:collect="always"
         stdDeviation="2.1546686"
         id="feGaussianBlur4502" />
    </filter>
  </defs>
  <sodipodi:namedview
     id="base"
     pagecolor="#ffffff"
     bordercolor="#666666"
     borderopacity="1.0"
     inkscape:pageopacity="0"
     inkscape:pageshadow="2"
     inkscape:zoom="1"
     inkscape:cx="280.86745"
     inkscape:cy="262.96243"
     inkscape:document-units="px"
     inkscape:current-layer="layer2"
     showgrid="false"
     inkscape:window-width="1280"
     inkscape:window-height="753"
     inkscape:window-x="0"
     inkscape:window-y="-3"
     inkscape:window-maximized="1"
     inkscape:snap-global="false"
     showguides="true"
     inkscape:snap-bbox="true"
     inkscape:snap-nodes="true"
     inkscape:object-paths="true"
     inkscape:snap-intersection-paths="true"
     inkscape:object-nodes="false"
     inkscape:snap-smooth-nodes="false"
     inkscape:snap-midpoints="false"
     inkscape:snap-object-midpoints="false"
     inkscape:snap-center="false"
     inkscape:snap-page="false"
     inkscape:bbox-paths="false"
     inkscape:bbox-nodes="false"
     inkscape:snap-bbox-edge-midpoints="false"
     inkscape:snap-bbox-midpoints="false"
     inkscape:guide-bbox="true"
     inkscape:snap-grids="true">
    <inkscape:grid
       type="xygrid"
       id="grid3595"
       empspacing="5"
       visible="true"
       enabled="true"
       snapvisiblegridlinesonly="true" />
  </sodipodi:namedview>
  <metadata
     id="metadata7">
    <rdf:RDF>
      <cc:Work
         rdf:about="">
        <dc:format>image/svg+xml</dc:format>
        <dc:type
           rdf:resource="http://purl.org/dc/dcmitype/StillImage" />
        <dc:title />
      </cc:Work>
    </rdf:RDF>
  </metadata>
  <g
     inkscape:groupmode="layer"
     id="layer2"
     inkscape:label="Layer"
     transform="translate(-199.12254,-145.54719)">
    <path
       style="opacity:0.89252337;fill:#55679e;stroke:#000000;stroke-width:1px;stroke-linecap:butt;stroke-linejoin:miter;stroke-opacity:1"
       d="m 550.26088,351.04646 -37.40625,23.5625 87.40625,-13.56177 -50,-10.00073 z"
       id="path3685"
       sodipodi:nodetypes="cccc" />
    <path
       style="fill:#8d91d0;fill-opacity:1;stroke:#000000;stroke-width:2;stroke-linecap:butt;stroke-linejoin:miter;stroke-opacity:1;stroke-miterlimit:4;stroke-dasharray:none"
       d="m 430.26088,166.04719 140,-20 245,80 -130,35 -255,-95 z"
       id="path3597" />
    <path
       style="fill:#cccdea;stroke:#000000;stroke-width:2;stroke-linecap:butt;stroke-linejoin:miter;stroke-opacity:1;stroke-miterlimit:4;stroke-dasharray:none"
       d="m 685.26088,476.04719 0,-170 130,-40 0,170 -130,40 z"
       id="path3599"
       sodipodi:nodetypes="ccccc" />
    <path
       style="fill:#d6d7ef;stroke:#000000;stroke-width:2;stroke-linecap:butt;stroke-linejoin:miter;stroke-opacity:1;stroke-miterlimit:4;stroke-dasharray:none"
       d="m 430.26088,196.04646 0,130 82.59375,48.5625 37.40625,-23.5625 45.0625,72.09375 89.9375,52.90625 0,-170 -255,-110 z"
       id="path3613" />
    <path
       style="fill:#8d91d0;stroke:#000000;stroke-width:2;stroke-linecap:butt;stroke-linejoin:miter;stroke-miterlimit:4;stroke-opacity:1;stroke-dasharray:none"
       d="m 430.26088,196.04719 255,110 0,-45 -255,-95 0,30 z"
       id="path3615"
       sodipodi:nodetypes="ccccc" />
    <path
       style="fill:#7382b3;stroke:#000000;stroke-width:2;stroke-linecap:butt;stroke-linejoin:miter;stroke-miterlimit:4;stroke-opacity:1;stroke-dasharray:none"
       d="m 815.26088,266.04719 -130,40 0,-45 130,-35 0,40 z"
       id="path3617"
       sodipodi:nodetypes="ccccc" />
    <path
       style="fill:#3d4970;fill-opacity:1;stroke:none"
       id="path3718"
       d="m 665.34215,273.66412 c 0.65033,2.05746 1.84728,3.87931 3.14593,5.5806 0.41196,0.66042 0.87592,1.33728 1.64482,1.61139 0.14136,0.0504 0.55273,0.16762 0.50436,-0.19372 -0.0259,-0.19342 -0.15459,-0.35836 -0.23188,-0.53754 -2.80159,2.87923 -5.55248,5.80869 -8.40478,8.6377 -0.10225,0.10142 0.10503,-0.27266 0.1157,-0.41628 0.0166,-0.22326 -0.0104,-0.44819 -0.035,-0.67071 -0.12574,-1.13926 -0.42907,-2.26304 -0.67615,-3.3793 -0.62522,-2.2763 -1.27862,-4.54107 -1.83717,-6.83405 -2.82208,-4.43305 -9.07221,5.16779 9.12156,-10.09051 0.29019,-0.24336 1.60157,2.40798 1.65016,2.50417 1.13882,2.35701 2.30595,4.69994 3.47516,7.04212 0.30045,0.47354 0.25832,1.09414 0.52444,1.58172 0.0698,0.12787 0.1851,0.23832 0.31634,0.30156 0.4905,0.23635 0.11412,-0.54151 0.073,-0.50525 -3.1342,2.76342 -6.05684,5.7579 -9.08526,8.63685 0.082,-0.13037 0.19778,-0.24487 0.24616,-0.39112 0.11084,-0.33506 0.18395,-1.45612 0.19801,-1.71044 0.0767,-1.38801 0.009,-2.77302 -0.0264,-4.16128 -0.0953,-1.68194 -0.11318,-3.80929 -0.87163,-5.36829 3.54595,-3.07241 6.89789,-6.38416 10.63784,-9.21722 0.24615,-0.18646 0.36042,0.50412 0.50239,0.77835 0.85182,1.64536 0.89185,3.47688 0.91696,5.28072 -0.6409,3.51237 -0.0263,1.20928 -1.89637,5.33686 -0.43005,0.94922 -0.82284,1.91488 -1.23426,2.87232 0,0 -0.37362,0.33228 -0.37362,0.33228 l 0,0 c -0.61434,-0.0412 -1.22731,-0.12705 -1.84301,-0.12345 -2.86211,0.0167 -1.42374,0.65347 -3.29676,-0.61206 -0.6979,-0.93106 -1.25886,-1.86213 -1.84415,-2.86234 -2.78263,-4.7553 -6.1314,4.38257 9.62081,-10.16573 -0.17248,0.0285 -0.38592,-0.0298 -0.51745,0.0854 -0.27132,0.23756 -0.52705,1.47159 -0.5619,1.65546 -0.26323,1.38884 -0.32608,2.80888 -0.20859,4.21653 0.15703,2.05678 0.41838,4.09509 0.70918,6.13569 -3.12643,3.06566 -7.16803,12.18164 -9.83449,8.7085 -0.21334,-0.27787 -0.20746,-0.67587 -0.38485,-0.97796 -0.26195,-0.44608 -0.71836,-0.75951 -0.93557,-1.23823 -1.11738,-2.28701 -2.14548,-4.63758 -3.61362,-6.72841 -0.23832,-0.29869 -0.67923,-0.92621 -1.05031,-1.17263 -0.0406,-0.027 -0.002,0.17706 0.0322,0.14274 3.1292,-3.09832 6.21108,-6.24412 9.29986,-9.38273 0.28639,-0.29101 -1.52056,1.22794 -0.62313,1.05455 0.18559,2.39992 0.6886,4.78016 1.31919,7.09937 2.73977,7.57918 2.76731,3.35284 -6.95286,13.68141 -0.18504,-0.0752 -0.38072,-0.12825 -0.55513,-0.2256 -1.0393,-0.58009 -1.304,-2.03372 -2.3279,-2.65668 -1.25186,-1.72927 -2.40258,-3.54422 -3.80429,-5.15674 0,0 8.9724,-8.498 8.9724,-8.498 z" />
    <path
       style="fill:#3d4970;fill-opacity:1;stroke:none"
       id="path3722"
       d="m 642.58485,255.08995 c 0.67602,2.0846 0.62155,4.27991 0.71088,6.44285 -0.0653,2.55775 0.056,5.11426 0.0703,7.67074 -0.021,0.22465 -0.0505,0.44867 -0.063,0.67395 -0.008,0.15005 -0.0327,0.30433 7.7e-4,0.45084 0.11953,0.5234 0.45591,-1.35206 -0.16084,-0.81515 -2.77578,2.41644 -5.24528,5.16368 -7.86792,7.74553 1.06713,-1.58882 1.62481,-3.49756 2.25987,-5.29206 0.27164,-0.79214 0.5552,-1.58011 0.82976,-2.37123 0.11664,-0.33608 0.30335,-0.65642 0.34594,-1.0096 0.0202,-0.16733 -0.15967,-0.30899 -0.16664,-0.47739 -0.0126,-0.30296 0.13064,-0.59264 0.17649,-0.89237 3.19253,-3.05219 6.11912,-6.40935 9.57758,-9.15655 0.31654,-0.25143 0.57647,0.58373 0.76388,0.9419 0.4175,0.79789 0.14314,3.36799 0.0466,4.22082 -0.60274,3.00902 -2.36246,5.5404 -3.86684,8.15281 0,0 -0.37519,0.33051 -0.37519,0.33051 l 0,0 c -0.53287,0.0934 -1.06363,0.19988 -1.59862,0.28032 -1.64222,0.2469 -2.1788,0.43308 -3.21236,-0.92767 -0.28438,-0.87616 -0.41724,-1.72432 -0.58868,-2.62609 -0.0247,-0.12984 -0.19997,-0.38055 -0.0682,-0.3906 0.19944,-0.0152 0.33194,0.49287 0.4807,0.35916 3.20381,-2.87969 6.13872,-6.04518 9.20808,-9.06776 -0.69215,0.65952 -0.23243,0.15511 -0.89016,1.14903 -0.28486,0.43046 -0.61875,0.82982 -0.87273,1.27921 -0.60632,1.07285 -0.86488,2.33524 -1.34436,3.46095 -0.5593,1.69572 -1.04028,3.4154 -1.556,5.12419 -2.77559,2.79296 -6.25289,10.81477 -8.83454,7.84163 -0.42078,-0.48459 -0.16358,-1.33983 -0.51378,-1.87057 -0.10694,-2.61662 0.23074,-5.23211 0.14058,-7.85102 -0.0128,-2.11977 -0.20977,-4.23452 -0.49207,-6.335 0,0 7.86055,-7.04138 7.86055,-7.04138 z" />
    <path
       style="fill:#404d77;fill-opacity:1;stroke:none"
       id="path3724"
       d="m 618.27645,247.75857 c 0.31129,2.16637 0.72773,4.32329 1.19848,6.46102 0.36452,1.10206 0.4425,2.27842 0.75228,3.39157 0.10937,0.39301 0.0202,0.35401 0.25716,0.35584 -1.12185,-4.49845 -0.0147,-0.50147 -9.51803,8.3252 -0.11658,0.10828 0.28789,-0.15548 0.38602,-0.28071 0.56113,-0.71614 0.69272,-1.84361 0.88865,-2.69022 0.12795,-1.11095 0.51767,-2.23629 0.55053,-3.35981 0.007,-0.22438 -0.21659,-0.98156 -0.16906,-1.03331 3.15259,-3.43199 6.46882,-6.70999 9.70323,-10.06498 0.32394,0.25512 0.70229,0.45331 0.97182,0.76536 0.82519,0.95539 0.89625,3.37488 0.81113,4.52938 -0.043,0.58285 -0.16966,1.15649 -0.25449,1.73473 -0.18254,2.71559 -1.43316,4.54503 -2.77534,6.85325 0,0 -0.36891,0.33749 -0.36891,0.33749 l 0,0 c -1.43189,0.48694 -2.47396,1.22166 -3.96218,0.69792 -0.36231,-0.12751 -0.61057,-0.46616 -0.91586,-0.69924 -0.28523,-0.24628 -0.61098,-0.45227 -0.85568,-0.73885 -0.18856,-0.22082 -0.86364,-1.46392 -1.01457,-1.75631 -0.11131,-0.21563 -0.20457,-0.44026 -0.31563,-0.65603 -0.0366,-0.0711 -0.19566,-0.24391 -0.12675,-0.20346 0.18064,0.10601 0.318,0.27268 0.47701,0.40902 22.72396,-23.75835 9.61002,-12.02459 8.44759,-8.15639 -0.32571,1.0839 -0.30626,2.28434 -0.54496,3.38603 -0.11093,0.87623 -0.22801,1.75099 -0.26878,2.63408 -0.008,0.18246 0.11884,0.42009 -0.0117,0.54785 -9.66726,9.46054 -6.21676,11.67004 -10.34916,8.72012 -0.91103,-1.1611 -1.6491,-2.39217 -1.99761,-3.84974 -0.61066,-1.83227 -1.16539,-3.74911 -2.15572,-5.41312 0,0 11.16054,-10.24669 11.16054,-10.24669 z" />
    <path
       style="fill:#55679e;fill-opacity:1;stroke:none"
       id="path3726"
       d="m 444.93531,175.71756 c -0.0109,1.7374 0.44552,3.44164 0.91497,5.10186 0.11346,0.82374 0.5825,1.57858 0.70842,2.39704 0.08,0.52001 0.0489,1.14158 0.0604,1.67418 -0.008,-0.009 -0.12234,0.82739 -0.15764,0.80576 -0.0931,-0.0571 -0.10318,-0.34 -0.18646,-0.26936 -9.2864,7.87763 -10.70758,12.41508 -9.30467,8.10412 0.24598,-1.4077 0.38448,-2.83354 0.49251,-4.25773 0.1119,-0.10907 0.0175,-2.29782 0.0299,-2.31004 9.49583,-9.33772 6.40416,-11.97015 10.11503,-8.31306 0.75879,1.39269 0.99062,3.00051 1.12221,4.56131 0.13116,1.42237 -0.24688,2.81552 -1.0114,4.02815 -0.54574,0.86561 -1.26323,1.61789 -1.7801,2.50103 -0.29677,0.50707 -0.4293,1.09383 -0.64396,1.64075 0,0 -0.37108,0.33511 -0.37108,0.33511 l 0,0 c -0.37428,-0.0156 -0.76427,-0.15513 -1.12284,-0.0467 -1.80149,0.54481 -3.45092,2.52147 -4.23632,-0.3655 -0.30924,-1.17064 -0.48103,-2.42067 -1.09416,-3.47949 3.09723,3.25028 0.19367,0.32807 9.25166,-8.70013 0.10427,-0.10392 -0.28645,0.11051 -0.38101,0.22334 -0.45879,0.54744 -0.37953,1.44657 -0.54199,2.08597 -0.12197,1.32188 -0.14572,2.649 -0.0937,3.9754 0.34203,4.62141 0.14265,0.76311 -9.45962,9.14784 -0.1753,0.15307 -0.17477,-0.3565 -0.31942,-0.39732 -0.38828,-0.10956 -0.0948,0.14556 -0.3806,-0.18805 -0.21998,-0.32882 -0.55016,-0.75133 -0.6967,-1.10851 -0.31827,-0.77575 -0.2718,-1.68875 -0.62331,-2.4578 -0.43102,-1.56714 -0.92749,-3.13267 -1.66535,-4.5854 0,0 11.37528,-10.10278 11.37528,-10.10278 z" />
    <path
       style="fill:#000000;fill-opacity:1;stroke:none"
       id="path4339"
       d="m 460.29668,573.69413 c 1.04887,1.15936 2.15173,2.25872 3.22577,3.39013 0.64564,0.69542 1.37475,1.28748 2.05123,1.94647 0.68787,0.70116 1.30104,1.48014 1.93176,2.23986 0.46026,0.54353 0.91004,1.09749 1.37937,1.63192 0.55718,0.65205 1.11896,1.29974 1.65746,1.97006 0.53444,0.71492 1.06414,1.43475 1.565,2.17777 0.49274,0.7786 0.88926,1.61769 1.36016,2.41104 0.34874,0.60426 0.79979,1.1265 1.21761,1.67351 0.69217,0.91097 1.19672,1.95426 1.70215,2.99177 0.30446,0.589 0.61367,1.17574 0.93246,1.75588 0.50515,0.93285 0.89207,1.92987 1.23343,2.94369 0.19867,0.53699 0.31296,1.1129 0.56021,1.628 0.47137,0.91402 0.77732,1.90981 1.05552,2.90778 0.40975,1.54656 0.54754,3.14996 0.63884,4.74914 0.0537,0.51425 0.26192,0.97734 0.42464,1.46197 0.12606,0.44916 0.32528,0.86181 0.51806,1.27905 0.27222,0.60603 0.57563,1.19456 0.88378,1.77981 0.10387,0.15391 0.27935,0.29172 0.39732,0.39557 0.26343,0.18468 0.55196,0.32173 0.83086,0.47664 0.3317,0.21523 0.66455,0.40355 1.03423,0.52253 0.53097,0.19566 1.07207,0.35292 1.61524,0.50259 0.49294,0.11432 0.98942,0.20747 1.48583,0.30195 0.74556,0.13963 1.48043,0.33074 2.20947,0.54833 0.4565,0.19405 0.93031,0.27017 1.41086,0.34386 0.65866,0.0784 1.31273,0.19404 1.96893,0.29212 0.59121,0.0911 1.18401,0.16786 1.77673,0.24585 0.52323,0.0751 1.04789,0.12697 1.5749,0.15583 0.71945,0.0286 1.43963,0.0258 2.15945,0.0272 0.98248,-0.018 1.96186,0.0468 2.9365,0.17611 0.90018,0.16882 1.80825,0.24604 2.7197,0.29199 1.35974,0.0274 2.71749,0.0775 4.07301,0.19932 1.00639,0.11026 2.01033,0.23317 3.02063,0.2928 1.40888,0.0385 2.81557,0.12215 4.22264,0.20504 1.99036,0.0939 3.9724,0.30471 5.9523,0.53619 1.86582,0.20721 3.72838,0.44627 5.59188,0.67627 2.14683,0.26053 4.30262,0.4219 6.45722,0.58482 2.47892,0.16288 4.95479,0.36928 7.42937,0.59536 2.36847,0.22048 4.73777,0.43735 7.09924,0.73451 2.2094,0.31828 4.39222,0.80388 6.60077,1.12909 2.73132,0.36239 5.46775,0.68095 8.20616,0.97357 4.73036,0.45195 9.44642,1.0418 14.15049,1.74276 5.58593,0.8735 11.14238,1.95099 16.69162,3.06131 6.40583,1.2343 12.79751,2.54888 19.1753,3.94261 5.67093,1.32598 11.38778,2.37971 17.1292,3.27051 4.87178,0.78213 9.7715,1.28463 14.68424,1.63048 4.87663,0.30312 9.76104,0.39392 14.64445,0.45008 5.82578,0.0411 11.65196,-2.2e-4 17.47748,-0.0645 4.95376,-0.028 9.90362,-0.19991 14.84811,-0.52115 2.88214,-0.17299 5.75634,-0.46269 8.56712,-1.1899 2.51641,-0.73827 4.94355,-1.78001 7.35979,-2.82989 2.67831,-1.12631 5.3147,-2.36292 7.95208,-3.59591 2.69029,-1.23185 5.3789,-2.46768 8.0592,-3.72483 1.84772,-0.85159 3.59143,-1.92497 5.2458,-3.15204 0.86583,-0.64367 1.59139,-1.45511 2.19969,-2.37616 0.26066,-0.47256 0.36347,-1.0113 0.46112,-1.54397 0.11931,-0.92149 0.16917,-1.85231 0.22402,-2.78046 0.0511,-0.88354 0.006,-1.76261 -0.0958,-2.639 -0.1174,-0.94394 -0.31079,-1.87417 -0.51959,-2.79857 -0.19873,-0.96554 -0.6548,-1.80456 -1.13174,-2.63337 -0.80704,-1.38706 -1.95827,-2.4352 -3.12532,-3.44932 -2.03206,-1.72664 -4.27142,-3.10826 -6.55605,-4.39521 -2.62932,-1.42536 -5.31179,-2.73226 -8.02648,-3.95418 -2.67561,-1.19232 -5.41182,-2.21404 -8.13483,-3.26973 -2.71227,-1.06807 -5.4329,-2.11092 -8.13366,-3.21288 -2.77962,-1.14193 -5.61607,-2.10896 -8.44315,-3.10097 -3.67243,-1.28089 -7.40023,-2.36193 -11.1162,-3.48182 -4.04809,-1.22404 -8.07594,-2.52422 -12.10524,-3.81828 -3.99921,-1.3143 -8.01785,-2.5575 -12.02632,-3.83794 -4.06718,-1.28821 -8.1291,-2.59181 -12.16936,-3.97624 -3.87082,-1.34303 -7.76036,-2.62067 -11.62843,-3.97317 -3.82745,-1.34294 -7.66355,-2.65664 -11.49279,-3.99353 -3.59169,-1.21645 -7.15383,-2.52942 -10.69727,-3.90086 -3.42161,-1.29242 -6.85719,-2.53978 -10.2625,-3.88221 -2.84258,-1.11704 -5.56716,-2.53747 -8.22465,-4.0917 -2.03987,-1.18334 -3.90082,-2.66223 -5.64721,-4.2971 -1.15472,-1.12487 -2.19622,-2.37197 -3.11884,-3.72325 -1.4243,-2.18015 -1.46288,-4.50193 -0.67824,-6.95013 0.9938,-2.24135 2.90422,-3.38882 4.84793,-4.48257 1.95324,-1.15725 3.97479,-2.16624 6.00904,-3.14248 2.62376,-1.15939 5.17431,-2.48308 7.66558,-3.94288 2.43913,-1.45935 4.74024,-3.16027 6.99298,-4.93077 2.10673,-1.61746 3.97821,-3.52988 5.67822,-5.62666 1.58586,-1.94654 2.76568,-4.17321 3.6856,-6.55644 1.11042,-2.95368 1.56048,-6.10421 1.86398,-9.25551 0.27763,-2.94193 0.11175,-5.88222 -0.24801,-8.8028 -0.24935,-1.88879 -0.60091,-3.75696 -1.14402,-5.57248 -0.40045,-1.2797 -0.90621,-2.51328 -1.44689,-3.72926 -0.47537,-1.13741 -1.00071,-2.24697 -1.64536,-3.28294 -0.91176,-1.31209 -1.97881,-2.48833 -3.02571,-3.67263 -1.79169,-2.00632 -3.73618,-3.8404 -5.69957,-5.64458 -2.58321,-2.34258 -5.21401,-4.62236 -7.81898,-6.93627 -2.80098,-2.45006 -5.44957,-5.08704 -7.9568,-7.88337 -2.06766,-2.36487 -4.06674,-4.79802 -6.12449,-7.173 -1.77973,-2.05336 -3.52493,-4.14313 -5.1594,-6.33419 -1.37082,-1.85854 -2.49415,-3.90664 -3.53001,-5.99824 -1.23985,-2.53182 -1.52581,-5.23313 -1.23222,-8.04022 0.41475,-2.43816 1.5096,-4.61158 2.69694,-6.69643 1.14044,-2.01 2.50171,-3.83991 3.98447,-5.56148 1.48739,-1.65386 3.09429,-3.17317 4.64326,-4.75775 1.62114,-1.81052 3.42243,-3.40023 5.27406,-4.92172 2.02538,-1.64247 4.18722,-3.06588 6.37903,-4.42821 2.09536,-1.27285 4.17481,-2.57543 6.21654,-3.94692 2.03434,-1.35596 4.05268,-2.73816 6.04279,-4.169 1.46122,-1.11391 3.0604,-1.98015 4.59716,-2.95819 1.15128,-0.79045 2.2824,-1.61484 3.41332,-2.43924 1.19537,-0.84733 2.37576,-1.71834 3.53973,-2.61545 0.82562,-0.625 1.5986,-1.32389 2.3894,-1.99786 0.64562,-0.54337 1.35081,-0.994 2.00871,-1.51806 1.87626,-1.47197 3.36797,-1.30683 5.49548,-0.68979 6.03313,2.69907 2.50956,11.94191 -3.52356,9.24283 l 0,0 c 1.20541,0.25505 2.41403,0.37277 3.469,-0.47473 -0.57548,0.45285 -1.171,0.87238 -1.75573,1.3108 -0.90687,0.76509 -1.78773,1.56725 -2.7341,2.27669 -1.22999,0.9469 -2.47538,1.86946 -3.7383,2.76421 -1.29221,0.94053 -2.58223,1.88572 -3.90573,2.77399 -1.38901,0.87622 -2.82843,1.66141 -4.15105,2.65695 -2.07072,1.48854 -4.17023,2.92757 -6.28678,4.33848 -2.13205,1.42884 -4.29861,2.79459 -6.48629,4.1211 -1.85157,1.14846 -3.68167,2.34156 -5.39538,3.72334 -1.58833,1.30162 -3.13038,2.66157 -4.51174,4.22267 -1.41479,1.44623 -2.87658,2.83903 -4.25058,4.33124 -1.07882,1.23303 -2.05494,2.55462 -2.87896,4.00428 -0.53087,0.90819 -1.03401,1.84269 -1.39657,2.8464 -0.27328,0.59892 0.0312,1.31673 0.23647,1.88462 0.76012,1.54453 1.57442,3.06548 2.57887,4.44171 1.48243,2.00075 3.08722,3.8902 4.70247,5.76517 2.02335,2.3361 3.99249,4.72583 6.02153,7.05605 2.25728,2.5289 4.65575,4.89828 7.18175,7.11068 2.64534,2.35003 5.31759,4.66454 7.9396,7.0453 2.20495,2.029 4.38521,4.09548 6.39468,6.35399 1.43051,1.62009 2.88021,3.24004 4.06535,5.0855 0.85526,1.42365 1.61992,2.90348 2.25857,4.45658 0.72327,1.63644 1.39495,3.29961 1.92135,5.0242 0.69203,2.38384 1.1892,4.82147 1.49971,7.29921 0.44612,3.70781 0.6325,7.44337 0.27451,11.17447 -0.41774,4.13458 -1.06318,8.25532 -2.55311,12.11717 -1.34027,3.3528 -3.00905,6.51304 -5.26267,9.25699 -2.16101,2.62969 -4.51433,5.05513 -7.17304,7.09556 -2.58345,2.02684 -5.22629,3.96798 -8.02521,5.63358 -2.70514,1.57936 -5.46802,3.02834 -8.31436,4.28749 -1.86129,0.89178 -3.71069,1.81371 -5.49583,2.87558 -1.3048,0.73156 -1.38822,1.10849 -0.66116,-0.33579 0.2358,-0.97916 0.38326,-2.16425 -0.29575,-2.99503 0.48719,0.75879 1.09474,1.41409 1.70527,2.05559 1.23258,1.16436 2.54333,2.21942 3.99102,3.05579 2.25753,1.32658 4.57289,2.5382 6.98962,3.49018 3.3879,1.33653 6.8076,2.57335 10.21109,3.86211 3.45225,1.33663 6.92309,2.61506 10.42262,3.79979 3.83069,1.33745 7.66828,2.65153 11.49717,3.99505 3.85072,1.34699 7.7234,2.61741 11.57675,3.95529 3.98253,1.36507 7.9869,2.64865 11.99598,3.91884 4.01276,1.28191 8.03578,2.52628 12.03927,3.84208 3.97949,1.27814 7.95748,2.56249 11.95546,3.77167 3.84023,1.15734 7.69211,2.27654 11.48667,3.60258 2.96499,1.04041 5.93874,2.05779 8.85353,3.25663 2.65243,1.08324 5.32551,2.10516 7.98915,3.15539 2.86954,1.11251 5.75207,2.19188 8.57029,3.45213 2.95901,1.33521 5.88498,2.75808 8.74858,4.32002 2.82932,1.60197 5.59451,3.33932 8.10213,5.49492 1.97016,1.74366 3.8441,3.61854 5.18282,5.99302 0.96347,1.7217 1.81021,3.51462 2.22932,5.49183 0.29327,1.31049 0.55889,2.63028 0.71541,3.96929 0.1611,1.4866 0.23197,2.9805 0.14278,4.4767 -0.0849,1.41938 -0.16396,2.84475 -0.41212,4.24405 -0.39565,1.92417 -0.99471,3.78271 -2.07217,5.39644 -1.25144,1.79761 -2.69165,3.41803 -4.42202,4.68621 -2.14113,1.56923 -4.38533,2.96241 -6.76853,4.05937 -2.68365,1.25873 -5.37544,2.49661 -8.06928,3.72954 -2.71147,1.26764 -5.42243,2.53769 -8.17561,3.69668 -2.85168,1.23723 -5.72074,2.45358 -8.70006,3.28698 -3.32412,0.82364 -6.70269,1.25418 -10.10907,1.43267 -5.09705,0.33031 -10.1996,0.50932 -15.30613,0.53853 -5.88957,0.0648 -11.7798,0.10656 -17.66964,0.0644 -5.05088,-0.0584 -10.1028,-0.15418 -15.14655,-0.47069 -5.14992,-0.36458 -10.28657,-0.89139 -15.39377,-1.7105 -5.91383,-0.91914 -11.80307,-2.00249 -17.64481,-3.3668 -6.32831,-1.38308 -12.67053,-2.68678 -19.0267,-3.91151 -5.41052,-1.08293 -10.828,-2.13436 -16.27402,-2.98842 -4.58678,-0.68503 -9.18572,-1.25691 -13.7983,-1.69766 -2.85329,-0.30552 -5.70472,-0.63628 -8.55028,-1.01746 -2.14819,-0.32012 -4.27485,-0.76858 -6.42049,-1.10433 -2.26288,-0.28816 -4.53453,-0.48774 -6.80412,-0.70237 -2.43035,-0.22208 -4.86194,-0.42455 -7.29655,-0.58427 -2.28884,-0.1732 -4.57876,-0.3466 -6.8592,-0.62481 -1.84537,-0.22777 -3.68978,-0.46468 -5.53746,-0.66973 -1.81743,-0.21251 -3.63649,-0.40956 -5.46373,-0.49324 -1.41373,-0.0835 -2.82705,-0.16451 -4.24251,-0.20624 -1.09553,-0.069 -2.18619,-0.18374 -3.27695,-0.31241 -1.24464,-0.11719 -2.49243,-0.13796 -3.74078,-0.17539 -1.14788,-0.0618 -2.29434,-0.15292 -3.42907,-0.35895 -0.59622,-0.0863 -1.19645,-0.10836 -1.79797,-0.0975 -0.87673,-0.002 -1.75393,6.4e-4 -2.62999,-0.0411 -0.73867,-0.0435 -1.47507,-0.11244 -2.20876,-0.21591 -0.6438,-0.0862 -1.28806,-0.16808 -1.93029,-0.26763 -0.66621,-0.10135 -1.33087,-0.2148 -1.99951,-0.29679 -0.86622,-0.1349 -1.73136,-0.29599 -2.56198,-0.60395 -0.44599,-0.13372 -0.89332,-0.25599 -1.35039,-0.33861 -0.72527,-0.13804 -1.4509,-0.27604 -2.16763,-0.4607 -0.76322,-0.21095 -1.52255,-0.43778 -2.26907,-0.71118 -0.80369,-0.29992 -1.59423,-0.64109 -2.32697,-1.11365 -0.78174,-0.43917 -1.5702,-0.87108 -2.26434,-1.46696 -1.08403,-0.94559 -2.05415,-2.03072 -2.75779,-3.34381 -0.39035,-0.74226 -0.7722,-1.49045 -1.1196,-2.25758 -0.35103,-0.76041 -0.68792,-1.52822 -0.93785,-2.33598 -0.46539,-1.38673 -0.89643,-2.79149 -0.96385,-4.28041 -0.0447,-0.84317 -0.0899,-1.69206 -0.27724,-2.51517 -0.1334,-0.51867 -0.2921,-1.01238 -0.55252,-1.47693 -0.34903,-0.82052 -0.64022,-1.66306 -0.90114,-2.52102 -0.13125,-0.41818 -0.28915,-0.82648 -0.48335,-1.21526 -0.39536,-0.72452 -0.78447,-1.45359 -1.1576,-2.19178 -0.21357,-0.43927 -0.40881,-0.89136 -0.66617,-1.30353 -0.64193,-0.85548 -1.32874,-1.67623 -1.85704,-2.62486 -0.38087,-0.64411 -0.74463,-1.29786 -1.08281,-1.96919 -0.32913,-0.51733 -0.71849,-0.98765 -1.06522,-1.49107 -0.43689,-0.56227 -0.91994,-1.08154 -1.3728,-1.6285 -0.52021,-0.59832 -1.02731,-1.20957 -1.53756,-1.81783 -0.42755,-0.51565 -0.8452,-1.04129 -1.2903,-1.53947 -0.72739,-0.75323 -1.58431,-1.35569 -2.26567,-2.16548 -1.1026,-1.16405 -2.23807,-2.29163 -3.3144,-3.48485 -4.61554,-5 1.91182,-12.07107 6.52736,-7.07107 z" />
    <path
       sodipodi:type="arc"
       style="opacity:0.98999999000000005;fill:url(#linearGradient4080);fill-opacity:1;stroke:#000000;stroke-width:2.38196561;stroke-linecap:butt;stroke-linejoin:round;stroke-miterlimit:4;stroke-opacity:1;stroke-dasharray:none;stroke-dashoffset:2.39999999999999991"
       id="path3619"
       sodipodi:cx="535"
       sodipodi:cy="296.59448"
       sodipodi:rx="30"
       sodipodi:ry="22.5"
       d="m 565,296.59448 c 0,12.42641 -13.43146,22.5 -30,22.5 -16.56854,0 -30,-10.07359 -30,-22.5 0,-12.4264 13.43146,-22.5 30,-22.5 16.56854,0 30,10.0736 30,22.5 z"
       transform="matrix(0.83964267,1.4543038,-1.4543038,0.83964267,617.14854,-648.04147)" />
    <path
       sodipodi:type="arc"
       style="opacity:0.98999999;fill:url(#linearGradient4082);fill-opacity:1;stroke:#000000;stroke-width:0.59549141;stroke-opacity:1"
       id="path3621"
       sodipodi:cx="535"
       sodipodi:cy="299.09448"
       sodipodi:rx="20"
       sodipodi:ry="15"
       d="m 555,299.09448 c 0,8.28427 -8.95431,15 -20,15 -11.04569,0 -20,-6.71573 -20,-15 0,-8.28427 8.95431,-15 20,-15 11.04569,0 20,6.71573 20,15 z"
       transform="matrix(0.83964267,1.4543038,-1.4543038,0.83964267,617.14854,-648.04147)" />
    <path
       style="opacity:0.98999999;fill:#e1e1e1;fill-opacity:1;stroke:#000000;stroke-width:1.99999988;stroke-linecap:butt;stroke-linejoin:round;stroke-miterlimit:4;stroke-opacity:1;stroke-dashoffset:2.4"
       d="m 633.54249,398.31797 c -22.84903,14.16144 -26.84012,7.24869 -31.24547,-0.38161 -4.40535,-7.63029 -8.39642,-14.54304 15.29225,-27.25017 5.72099,-3.06884 13.75138,0.3081 18.15673,7.93838 4.40536,7.63031 3.41881,16.44734 -2.20351,19.6934 z"
       id="path3641"
       sodipodi:nodetypes="csssc" />
    <path
       transform="matrix(0.39883027,0.6907943,-0.67867509,0.39183326,600.63666,-93.871578)"
       sodipodi:type="arc"
       style="opacity:0.98999999;fill:#f8f8f8;fill-opacity:1;stroke:#000000;stroke-width:2.52962017;stroke-linecap:butt;stroke-linejoin:round;stroke-miterlimit:4;stroke-opacity:1;stroke-dasharray:none;stroke-dashoffset:2.4"
       id="path3643"
       sodipodi:cx="535"
       sodipodi:cy="299.09448"
       sodipodi:rx="20"
       sodipodi:ry="15"
       d="m 555,299.09448 c 0,8.28427 -8.95431,15 -20,15 -11.04569,0 -20,-6.71573 -20,-15 0,-8.28427 8.95431,-15 20,-15 11.04569,0 20,6.71573 20,15 z" />
    <rect
       style="fill:#000000;fill-opacity:1;stroke:#000000;stroke-width:1.00424933;stroke-opacity:1"
       id="rect4031"
       width="30.672264"
       height="19.067381"
       x="51.135841"
       y="736.25482"
       rx="5.2171402"
       ry="5.2171426"
       transform="matrix(0.75302636,-0.65799035,0.55477795,0.83199846,0,0)" />
    <g
       id="g4476"
       transform="translate(0,-60)">
      <g
         transform="matrix(0.22062159,0.4330127,-0.3821278,0.25,446.79071,439.39145)"
         id="g4017">
        <path
           id="path4019"
           d="m 240,194.09448 70,0 0,20 -70,0 0,-20 z"
           style="fill:url(#linearGradient4486);fill-opacity:1;stroke:none" />
        <rect
           rx="11.824301"
           ry="10.434784"
           y="189.09448"
           x="305"
           height="30"
           width="35"
           id="rect4021"
           style="fill:#34343b;fill-opacity:1;stroke:none" />
      </g>
      <g
         id="g4007"
         transform="matrix(-0.22062159,0.4330127,-0.3821278,-0.25,406.56262,539.33451)">
        <path
           style="fill:url(#linearGradient4488);fill-opacity:1;stroke:none"
           d="m 240,194.09448 70,0 0,20 -70,0 0,-20 z"
           id="path4009" />
        <rect
           style="fill:#34343b;fill-opacity:1;stroke:none"
           id="rect4011"
           width="35"
           height="30"
           x="305"
           y="189.09448"
           ry="10.434784"
           rx="11.824301" />
      </g>
      <path
         style="fill:url(#linearGradient4490);fill-opacity:1;stroke:none"
         d="m 354.89713,586.23394 0,35 -8.82486,0 0,-35 8.82486,0 z"
         id="path3997" />
      <rect
         transform="matrix(0,1,-1,0,0,0)"
         style="fill:#383838;fill-opacity:1;stroke:none"
         id="rect3999"
         width="17.5"
         height="13.237295"
         x="618.73395"
         y="-357.10333"
         ry="5.217392"
         rx="5.217392" />
    </g>
    <path
       style="fill:url(#radialGradient4498);fill-opacity:1;stroke:#000000;stroke-width:2;stroke-miterlimit:4;stroke-opacity:1;stroke-dasharray:none"
       d="m 296.65303,329.23394 c 33.74426,-13.84396 73.91908,-13.84396 107.66334,0 34.56408,14.1803 67.81091,43.01305 84.71869,80 13.57335,29.69264 14.42855,68.93354 7.05989,102 -5.31393,23.84596 -17.76987,47.49773 -35.29945,62 -31.02094,25.6637 -72.84228,34.09394 -111.25084,34 -37.80385,-0.0925 -78.8864,-8.66574 -109.37075,-34 -17.50193,-14.54511 -29.96975,-38.15856 -35.29946,-62 -7.53457,-33.7045 -6.76238,-71.70502 7.05989,-102 16.88234,-37.00187 50.15461,-65.8197 84.71869,-80 z"
       id="rect3728"
       sodipodi:nodetypes="caaaaaaaaa" />
    <path
       sodipodi:nodetypes="cccc"
       id="path3967"
       d="m 195.86387,548.73394 c 0,0 -30,-90 20,-180 110,-10 230,0 230,0 20,90 10,180 10,180 -130,20 -260,-0.34782 -260,0 z"
       style="fill:#ffffff;fill-opacity:1;stroke:none;filter:url(#filter3977)"
       transform="matrix(0.88248636,0,0,1,58.943092,0)" />
    <path
       style="opacity:0.85046728;fill:#000000;fill-opacity:1;stroke:#000000;stroke-width:1px;stroke-linecap:butt;stroke-linejoin:miter;stroke-opacity:1;filter:url(#filter4500)"
       d="m 234.92072,542.2122 c 0,0 -27.51807,-77.91304 16.60625,-167.91304 97.0735,-10 194.27621,1.82608 194.27621,1.82608 45.91059,57.04348 20.56399,160.6087 20.56399,160.6087 -116.02757,36.26087 -231.44645,5.13044 -231.44645,5.47826 z"
       id="path3731"
       sodipodi:nodetypes="ccccc"
       inkscape:export-xdpi="16.73"
       inkscape:export-ydpi="16.73" />
    <g
       id="g3887"
       transform="matrix(0.88248636,0,0,1,113.14149,31.610572)">
      <path
         d="m 138.01872,453.82367 c 3.93137,0.11669 7.86296,0.23138 11.79442,0.34909 8.97805,0.30064 17.95557,0.54617 26.93839,0.62909 3.93764,0.0189 7.87424,-0.0695 11.8118,-0.0602 1.67275,0.004 3.26756,-0.0304 4.89896,0.3349 1.23796,0.19001 0.25859,1.26694 -0.12098,1.91529 0,0 -0.21491,0.17948 -0.21491,0.17948 l 0,0 c -0.87773,0.34374 -1.40878,1.35121 -2.50858,1.24511 -5.67257,1.03465 -11.53818,0.15603 -17.25854,0.34904 -9.09894,-0.10051 -18.19811,-0.17567 -27.29752,-0.21634 -4.02288,-0.0246 -8.04879,-0.12622 -12.07049,-0.01 0,0 4.02745,-4.71554 4.02745,-4.71554 z"
         id="path3753"
         style="fill:#ffffff;fill-opacity:1;stroke:none" />
      <path
         d="m 196.25546,395.1538 c -0.87467,3.40458 -0.98244,6.94206 -1.17551,10.43387 -0.19546,6.26014 -0.7385,12.49802 -1.32562,18.73111 -0.61296,6.45199 -1.06158,12.91759 -1.78197,19.359 -0.77823,4.53204 0.0197,1.00309 -1.61317,5.62953 -1.20883,3.42499 0.23327,0.51335 -1.59806,3.79728 0,0 -0.21413,0.18041 -0.21413,0.18041 l 0,0 c -0.29778,-0.0788 -0.69859,0.002 -0.89333,-0.23629 -0.26518,-0.32496 -0.13326,-0.83662 -0.29721,-1.22267 -1.17266,-2.7612 -0.7596,0.45472 -0.78462,-3.61756 0.41007,-6.40996 1.0027,-12.80624 1.59103,-19.20187 0.55171,-6.18882 1.11679,-12.38025 1.22449,-18.597 0.089,-3.42202 0.16499,-6.86156 0.71624,-10.24734 0,0 6.15186,-5.00847 6.15186,-5.00847 z"
         id="path3755"
         style="fill:#ffffff;fill-opacity:1;stroke:none" />
      <path
         d="m 192.78334,394.46785 c 4.73638,0.20068 9.47462,0.2198 14.21429,0.17105 8.80844,-0.22198 17.60726,-0.706 26.41933,-0.47833 4.03988,1.18865 2.03174,0.72265 6.01816,1.42468 0,0 -0.18145,0.21325 -0.18145,0.21325 l 0,0 c -5.58689,0.91957 -2.63121,0.31089 -8.84547,1.92781 -9.29432,1.2472 -18.64125,1.98156 -28.01316,2.32888 -4.86097,0.19098 -9.7199,0.26097 -14.58425,0.25382 0,0 4.97255,-5.84116 4.97255,-5.84116 z"
         id="path3757"
         style="fill:#ffffff;fill-opacity:1;stroke:none" />
      <path
         d="m 239.46017,391.5685 c -1.25245,6.29432 -1.45789,12.75778 -1.93558,19.14537 -0.8316,10.72017 -1.65172,21.4398 -2.30443,32.17256 -0.70375,4.48825 0.13399,9.28231 -1.08217,13.70682 -0.2704,0.98373 -0.73734,1.90255 -1.10601,2.85382 0,0 -0.21158,0.1834 -0.21158,0.1834 l 0,0 c -0.45624,-0.24242 -1.05932,-0.3135 -1.36871,-0.72725 -1.5516,-2.07493 -0.51453,-9.72419 -0.72304,-12.22101 0.45856,-10.54774 1.11595,-21.08511 1.65313,-31.62892 0.27844,-6.23376 0.41431,-12.5001 1.19571,-18.69494 0,0 5.88268,-4.78985 5.88268,-4.78985 z"
         id="path3759"
         style="fill:#ffffff;fill-opacity:1;stroke:none" />
      <path
         d="m 237.13809,448.85608 c 4.04087,0.007 8.07042,0.36369 12.10173,0.60273 6.21379,0.42894 12.44291,0.3613 18.66645,0.31749 4.97587,0.0419 1.036,-0.0359 5.65989,0.16654 1.43501,0.0628 2.73762,-0.0922 4.07829,0.51741 0.38414,0.17466 0.66167,0.52391 0.99251,0.78586 0,0 -0.17878,0.21549 -0.17878,0.21549 l 0,0 c -0.91887,0.44191 -1.81139,0.9434 -2.7566,1.32572 -3.89943,1.57727 -8.19253,1.89502 -12.3297,2.33049 -6.32705,0.32965 -12.66499,0.35491 -18.99129,-0.0419 -3.93604,-0.26483 -7.86852,-0.56922 -11.79785,-0.91886 0,0 4.55535,-5.30102 4.55535,-5.30102 z"
         id="path3761"
         style="fill:#ffffff;fill-opacity:1;stroke:none" />
      <path
         d="m 283.11839,388.82978 c -0.7987,5.27019 -0.9369,10.61414 -1.12545,15.93259 -0.26698,9.92226 -0.36587,19.84694 -0.79381,29.76438 -0.24892,4.03472 -0.22767,8.09808 -1.11758,12.06471 -1.56874,6.99247 -0.58216,0.42165 -1.28494,5.70973 0,0 -0.21217,0.18272 -0.21217,0.18272 l 0,0 c -0.64694,-2.27102 -0.179,-1.1411 -1.47575,-3.35907 -1.16143,-3.30822 -0.47953,-6.9852 -0.85302,-10.38614 -0.20404,-9.65501 -0.1923,-19.31161 -0.1533,-28.96833 0.0501,-5.2168 -1.7e-4,-10.46268 0.59201,-15.65271 0,0 6.42401,-5.28788 6.42401,-5.28788 z"
         id="path3763"
         style="fill:#ffffff;fill-opacity:1;stroke:none" />
      <path
         d="m 278.4429,389.1185 c 3.19095,1.90189 6.82188,2.72883 10.41429,3.49135 9.02913,1.62086 18.19122,2.35281 27.33478,2.96768 11.7749,0.92615 23.59011,0.82944 35.38197,1.37376 5.90579,0.55758 3.08817,0.17096 8.46029,1.10434 0,0 -0.18266,0.21221 -0.18266,0.21221 l 0,0 c -6.47537,0.46617 -3.14196,0.23147 -10.00039,0.7022 -12.34604,0.6206 -24.70694,0.64767 -37.06647,0.55855 -9.46345,-0.27304 -18.95901,-0.52009 -28.33395,-1.95727 -3.74743,-0.6763 -7.5454,-1.38425 -10.8687,-3.35128 0,0 4.86084,-5.10154 4.86084,-5.10154 z"
         id="path3765"
         style="fill:#ffffff;fill-opacity:1;stroke:none" />
      <path
         d="m 357.31264,395.28158 c -0.10513,2.33553 -0.006,4.6863 0.10453,7.02199 0.15534,2.17918 0.5583,4.31138 0.70676,6.48753 0.19244,1.73532 0.13072,3.47272 0.0206,5.20977 -0.3076,3.79502 -0.34715,7.60366 -0.40899,11.40843 -0.0322,6.73732 -0.15204,13.47295 -0.55372,20.1989 -0.33561,4.86898 -1.03422,9.70073 -1.3974,14.56644 -0.36066,0.95218 0.007,2.13806 -0.32347,3.09236 -0.2029,0.58566 -0.9629,1.64453 -1.2812,2.12089 0,0 -0.19183,0.20398 -0.19183,0.20398 l 0,0 c -2.11887,1.36624 -2.82565,1.73749 -3.40912,-0.98701 -0.20753,-4.72411 0.53009,-9.41751 0.82366,-14.12273 0.43616,-6.67031 0.60186,-13.34571 0.42894,-20.03019 -0.0624,-3.73436 -0.0944,-7.47204 0.0979,-11.20358 0.0895,-1.78032 0.21308,-3.55852 0.23511,-5.34156 0.0392,-2.54835 0.3325,-5.07078 0.56414,-7.60953 0.17191,-2.52349 0.35214,-5.04723 0.50516,-7.57087 0,0 4.07899,-3.44482 4.07899,-3.44482 z"
         id="path3783"
         style="fill:#ffffff;fill-opacity:1;stroke:none" />
      <path
         d="m 357.03899,448.14413 c 3.0025,0.63862 6.05372,0.76009 9.11106,0.69098 6.58093,-0.37543 13.10618,-1.38348 19.62672,-2.30824 2.06124,0.0705 6.92846,-1.93832 8.67667,-0.2106 0.44848,0.44323 0.36347,1.20757 0.54521,1.81136 0,0 -0.17949,0.2149 -0.17949,0.2149 l 0,0 c -1.32495,0.77074 -2.59595,1.64277 -3.97485,2.31222 -3.3559,1.6293 -6.85942,1.92382 -10.49738,2.41534 -6.63823,0.95427 -13.27168,2.043 -19.96274,2.54862 -3.15216,0.0788 -6.27358,-0.12625 -9.3924,-0.60404 0,0 6.0472,-6.87054 6.0472,-6.87054 z"
         id="path3785"
         style="fill:#ffffff;fill-opacity:1;stroke:none" />
      <path
         style="fill:#ffffff;fill-opacity:1;stroke:none;filter:url(#filter3841)"
         id="path3787"
         d="m 138.01872,453.82367 c 3.93137,0.11669 7.86296,0.23138 11.79442,0.34909 8.97805,0.30064 17.95557,0.54617 26.93839,0.62909 3.93764,0.0189 7.87424,-0.0695 11.8118,-0.0602 1.67275,0.004 3.26756,-0.0304 4.89896,0.3349 1.23796,0.19001 0.25859,1.26694 -0.12098,1.91529 0,0 -0.21491,0.17948 -0.21491,0.17948 l 0,0 c -0.87773,0.34374 -1.40878,1.35121 -2.50858,1.24511 -5.67257,1.03465 -11.53818,0.15603 -17.25854,0.34904 -9.09894,-0.10051 -18.19811,-0.17567 -27.29752,-0.21634 -4.02288,-0.0246 -8.04879,-0.12622 -12.07049,-0.01 0,0 4.02745,-4.71554 4.02745,-4.71554 z" />
      <path
         style="fill:#ffffff;fill-opacity:1;stroke:none;filter:url(#filter3845)"
         id="path3789"
         d="m 196.25546,395.1538 c -0.87467,3.40458 -0.98244,6.94206 -1.17551,10.43387 -0.19546,6.26014 -0.7385,12.49802 -1.32562,18.73111 -0.61296,6.45199 -1.06158,12.91759 -1.78197,19.359 -0.77823,4.53204 0.0197,1.00309 -1.61317,5.62953 -1.20883,3.42499 0.23327,0.51335 -1.59806,3.79728 0,0 -0.21413,0.18041 -0.21413,0.18041 l 0,0 c -0.29778,-0.0788 -0.69859,0.002 -0.89333,-0.23629 -0.26518,-0.32496 -0.13326,-0.83662 -0.29721,-1.22267 -1.17266,-2.7612 -0.7596,0.45472 -0.78462,-3.61756 0.41007,-6.40996 1.0027,-12.80624 1.59103,-19.20187 0.55171,-6.18882 1.11679,-12.38025 1.22449,-18.597 0.089,-3.42202 0.16499,-6.86156 0.71624,-10.24734 0,0 6.15186,-5.00847 6.15186,-5.00847 z" />
      <path
         style="fill:#ffffff;fill-opacity:1;stroke:none;filter:url(#filter3849)"
         id="path3791"
         d="m 192.78334,394.46785 c 4.73638,0.20068 9.47462,0.2198 14.21429,0.17105 8.80844,-0.22198 17.60726,-0.706 26.41933,-0.47833 4.03988,1.18865 2.03174,0.72265 6.01816,1.42468 0,0 -0.18145,0.21325 -0.18145,0.21325 l 0,0 c -5.58689,0.91957 -2.63121,0.31089 -8.84547,1.92781 -9.29432,1.2472 -18.64125,1.98156 -28.01316,2.32888 -4.86097,0.19098 -9.7199,0.26097 -14.58425,0.25382 0,0 4.97255,-5.84116 4.97255,-5.84116 z" />
      <path
         style="fill:#ffffff;fill-opacity:1;stroke:none;filter:url(#filter3853)"
         id="path3793"
         d="m 239.46017,391.5685 c -1.25245,6.29432 -1.45789,12.75778 -1.93558,19.14537 -0.8316,10.72017 -1.65172,21.4398 -2.30443,32.17256 -0.70375,4.48825 0.13399,9.28231 -1.08217,13.70682 -0.2704,0.98373 -0.73734,1.90255 -1.10601,2.85382 0,0 -0.21158,0.1834 -0.21158,0.1834 l 0,0 c -0.45624,-0.24242 -1.05932,-0.3135 -1.36871,-0.72725 -1.5516,-2.07493 -0.51453,-9.72419 -0.72304,-12.22101 0.45856,-10.54774 1.11595,-21.08511 1.65313,-31.62892 0.27844,-6.23376 0.41431,-12.5001 1.19571,-18.69494 0,0 5.88268,-4.78985 5.88268,-4.78985 z" />
      <path
         style="fill:#ffffff;fill-opacity:1;stroke:none;filter:url(#filter3857)"
         id="path3795"
         d="m 237.13809,448.85608 c 4.04087,0.007 8.07042,0.36369 12.10173,0.60273 6.21379,0.42894 12.44291,0.3613 18.66645,0.31749 4.97587,0.0419 1.036,-0.0359 5.65989,0.16654 1.43501,0.0628 2.73762,-0.0922 4.07829,0.51741 0.38414,0.17466 0.66167,0.52391 0.99251,0.78586 0,0 -0.17878,0.21549 -0.17878,0.21549 l 0,0 c -0.91887,0.44191 -1.81139,0.9434 -2.7566,1.32572 -3.89943,1.57727 -8.19253,1.89502 -12.3297,2.33049 -6.32705,0.32965 -12.66499,0.35491 -18.99129,-0.0419 -3.93604,-0.26483 -7.86852,-0.56922 -11.79785,-0.91886 0,0 4.55535,-5.30102 4.55535,-5.30102 z" />
      <path
         style="fill:#ffffff;fill-opacity:1;stroke:none;filter:url(#filter3861)"
         id="path3797"
         d="m 283.11839,388.82978 c -0.7987,5.27019 -0.9369,10.61414 -1.12545,15.93259 -0.26698,9.92226 -0.36587,19.84694 -0.79381,29.76438 -0.24892,4.03472 -0.22767,8.09808 -1.11758,12.06471 -1.56874,6.99247 -0.58216,0.42165 -1.28494,5.70973 0,0 -0.21217,0.18272 -0.21217,0.18272 l 0,0 c -0.64694,-2.27102 -0.179,-1.1411 -1.47575,-3.35907 -1.16143,-3.30822 -0.47953,-6.9852 -0.85302,-10.38614 -0.20404,-9.65501 -0.1923,-19.31161 -0.1533,-28.96833 0.0501,-5.2168 -1.7e-4,-10.46268 0.59201,-15.65271 0,0 6.42401,-5.28788 6.42401,-5.28788 z" />
      <path
         style="fill:#ffffff;fill-opacity:1;stroke:none;filter:url(#filter3865)"
         id="path3799"
         d="m 278.4429,389.1185 c 3.19095,1.90189 6.82188,2.72883 10.41429,3.49135 9.02913,1.62086 18.19122,2.35281 27.33478,2.96768 11.7749,0.92615 23.59011,0.82944 35.38197,1.37376 5.90579,0.55758 3.08817,0.17096 8.46029,1.10434 0,0 -0.18266,0.21221 -0.18266,0.21221 l 0,0 c -6.47537,0.46617 -3.14196,0.23147 -10.00039,0.7022 -12.34604,0.6206 -24.70694,0.64767 -37.06647,0.55855 -9.46345,-0.27304 -18.95901,-0.52009 -28.33395,-1.95727 -3.74743,-0.6763 -7.5454,-1.38425 -10.8687,-3.35128 0,0 4.86084,-5.10154 4.86084,-5.10154 z" />
      <path
         style="fill:#ffffff;fill-opacity:1;stroke:none;filter:url(#filter3869)"
         id="path3801"
         d="m 357.31264,395.28158 c -0.10513,2.33553 -0.006,4.6863 0.10453,7.02199 0.15534,2.17918 0.5583,4.31138 0.70676,6.48753 0.19244,1.73532 0.13072,3.47272 0.0206,5.20977 -0.3076,3.79502 -0.34715,7.60366 -0.40899,11.40843 -0.0322,6.73732 -0.15204,13.47295 -0.55372,20.1989 -0.33561,4.86898 -1.03422,9.70073 -1.3974,14.56644 -0.36066,0.95218 0.007,2.13806 -0.32347,3.09236 -0.2029,0.58566 -0.9629,1.64453 -1.2812,2.12089 0,0 -0.19183,0.20398 -0.19183,0.20398 l 0,0 c -2.11887,1.36624 -2.82565,1.73749 -3.40912,-0.98701 -0.20753,-4.72411 0.53009,-9.41751 0.82366,-14.12273 0.43616,-6.67031 0.60186,-13.34571 0.42894,-20.03019 -0.0624,-3.73436 -0.0944,-7.47204 0.0979,-11.20358 0.0895,-1.78032 0.21308,-3.55852 0.23511,-5.34156 0.0392,-2.54835 0.3325,-5.07078 0.56414,-7.60953 0.17191,-2.52349 0.35214,-5.04723 0.50516,-7.57087 0,0 4.07899,-3.44482 4.07899,-3.44482 z" />
      <path
         style="fill:#ffffff;fill-opacity:1;stroke:none;filter:url(#filter3873)"
         id="path3803"
         d="m 357.03899,448.14413 c 3.0025,0.63862 6.05372,0.76009 9.11106,0.69098 6.58093,-0.37543 13.10618,-1.38348 19.62672,-2.30824 2.06124,0.0705 6.92846,-1.93832 8.67667,-0.2106 0.44848,0.44323 0.36347,1.20757 0.54521,1.81136 0,0 -0.17949,0.2149 -0.17949,0.2149 l 0,0 c -1.32495,0.77074 -2.59595,1.64277 -3.97485,2.31222 -3.3559,1.6293 -6.85942,1.92382 -10.49738,2.41534 -6.63823,0.95427 -13.27168,2.043 -19.96274,2.54862 -3.15216,0.0788 -6.27358,-0.12625 -9.3924,-0.60404 0,0 6.0472,-6.87054 6.0472,-6.87054 z" />
    </g>
  </g>
</svg>
