<?xml version="1.0" encoding="UTF-8" standalone="no"?>
<!-- Created with Inkscape (http://www.inkscape.org/) -->

<svg
   xmlns:dc="http://purl.org/dc/elements/1.1/"
   xmlns:cc="http://creativecommons.org/ns#"
   xmlns:rdf="http://www.w3.org/1999/02/22-rdf-syntax-ns#"
   xmlns:svg="http://www.w3.org/2000/svg"
   xmlns="http://www.w3.org/2000/svg"
   xmlns:xlink="http://www.w3.org/1999/xlink"
   xmlns:sodipodi="http://sodipodi.sourceforge.net/DTD/sodipodi-0.dtd"
   xmlns:inkscape="http://www.inkscape.org/namespaces/inkscape"
   width="320"
   height="320"
   id="svg2"
   version="1.1"
   inkscape:version="0.47 r22583"
   sodipodi:docname="inspector-icon.svg"
   inkscape:export-filename="inspector-icon-32.png"
   inkscape:export-xdpi="4.6700001"
   inkscape:export-ydpi="4.6700001">
  <defs
     id="defs4">
    <linearGradient
       id="linearGradient4492">
      <stop
         style="stop-color:#e8eee6;stop-opacity:1;"
         offset="0"
         id="stop4494" />
      <stop
         style="stop-color:#e8eee6;stop-opacity:1;"
         offset="1"
         id="stop4496" />
    </linearGradient>
    <linearGradient
       id="linearGradient3983">
      <stop
         style="stop-color:#7c7c7c;stop-opacity:1;"
         offset="0"
         id="stop3985" />
      <stop
         id="stop3991"
         offset="0.60714287"
         style="stop-color:#dfdfdf;stop-opacity:1;" />
      <stop
         style="stop-color:#818181;stop-opacity:1;"
         offset="1"
         id="stop3987" />
    </linearGradient>
    <filter
       inkscape:collect="always"
       id="filter3841"
       x="-0.1691912"
       width="1.3383824"
       y="-1.9901522"
       height="4.9803047"
       color-interpolation-filters="sRGB">
      <feGaussianBlur
         inkscape:collect="always"
         stdDeviation="4.235235"
         id="feGaussianBlur3843" />
    </filter>
    <filter
       inkscape:collect="always"
       id="filter3845"
       x="-1.0441947"
       width="3.0883894"
       y="-0.17485557"
       height="1.3497111"
       color-interpolation-filters="sRGB">
      <feGaussianBlur
         inkscape:collect="always"
         stdDeviation="4.235235"
         id="feGaussianBlur3847" />
    </filter>
    <filter
       inkscape:collect="always"
       id="filter3849"
       x="-0.19689482"
       width="1.3937896"
       y="-1.6372303"
       height="4.2744608"
       color-interpolation-filters="sRGB">
      <feGaussianBlur
         inkscape:collect="always"
         stdDeviation="4.235235"
         id="feGaussianBlur3851" />
    </filter>
    <filter
       inkscape:collect="always"
       id="filter3853"
       x="-1.1446682"
       width="3.2893364"
       y="-0.14934278"
       height="1.2986856"
       color-interpolation-filters="sRGB">
      <feGaussianBlur
         inkscape:collect="always"
         stdDeviation="4.235235"
         id="feGaussianBlur3855" />
    </filter>
    <filter
       inkscape:collect="always"
       id="filter3857"
       x="-0.22070862"
       width="1.4414173"
       y="-1.5605887"
       height="4.1211772"
       color-interpolation-filters="sRGB">
      <feGaussianBlur
         inkscape:collect="always"
         stdDeviation="4.235235"
         id="feGaussianBlur3859" />
    </filter>
    <filter
       inkscape:collect="always"
       id="filter3861"
       x="-1.4440452"
       width="3.8880906"
       y="-0.15968429"
       height="1.3193686"
       color-interpolation-filters="sRGB">
      <feGaussianBlur
         inkscape:collect="always"
         stdDeviation="4.235235"
         id="feGaussianBlur3863" />
    </filter>
    <filter
       inkscape:collect="always"
       id="filter3865"
       x="-0.11757442"
       width="1.2351488"
       y="-0.97290057"
       height="2.945801"
       color-interpolation-filters="sRGB">
      <feGaussianBlur
         inkscape:collect="always"
         stdDeviation="4.235235"
         id="feGaussianBlur3867" />
    </filter>
    <filter
       inkscape:collect="always"
       id="filter3869"
       x="-1.3190989"
       width="3.6381979"
       y="-0.14244141"
       height="1.2848828"
       color-interpolation-filters="sRGB">
      <feGaussianBlur
         inkscape:collect="always"
         stdDeviation="4.235235"
         id="feGaussianBlur3871" />
    </filter>
    <filter
       inkscape:collect="always"
       id="filter3873"
       x="-0.23097681"
       width="1.4619536"
       y="-1.0142232"
       height="3.0284462"
       color-interpolation-filters="sRGB">
      <feGaussianBlur
         inkscape:collect="always"
         stdDeviation="4.235235"
         id="feGaussianBlur3875" />
    </filter>
    <filter
       inkscape:collect="always"
       id="filter3977"
       color-interpolation-filters="sRGB">
      <feGaussianBlur
         inkscape:collect="always"
         stdDeviation="4.6468216"
         id="feGaussianBlur3979" />
    </filter>
    <linearGradient
       inkscape:collect="always"
       xlink:href="#linearGradient3983"
       id="linearGradient4486"
       gradientUnits="userSpaceOnUse"
       x1="310"
       y1="194.09448"
       x2="310"
       y2="214.09448"
       gradientTransform="translate(248.93873,151.57563)" />
    <linearGradient
       inkscape:collect="always"
       xlink:href="#linearGradient3983"
       id="linearGradient4488"
       gradientUnits="userSpaceOnUse"
       x1="310"
       y1="194.09448"
       x2="310"
       y2="214.09448"
       gradientTransform="translate(255.73771,-139.79946)" />
    <linearGradient
       inkscape:collect="always"
       xlink:href="#linearGradient3983"
       id="linearGradient4490"
       gradientUnits="userSpaceOnUse"
       gradientTransform="matrix(0,0.5,-0.44124318,0,437.54,611.92148)"
       x1="310"
       y1="194.09448"
       x2="310"
       y2="214.09448" />
    <radialGradient
       inkscape:collect="always"
       xlink:href="#linearGradient4492"
       id="radialGradient4498"
       cx="350.41257"
       cy="463.04285"
       fx="350.41257"
       fy="463.04285"
       r="151.29004"
       gradientTransform="matrix(1,0,0,0.95969218,-3.0000021,164.35179)"
       gradientUnits="userSpaceOnUse" />
    <filter
       inkscape:collect="always"
       id="filter4500"
       color-interpolation-filters="sRGB">
      <feGaussianBlur
         inkscape:collect="always"
         stdDeviation="2.1546686"
         id="feGaussianBlur4502" />
    </filter>
    <linearGradient
       inkscape:collect="always"
       xlink:href="#linearGradient3983"
       id="linearGradient3725"
       gradientUnits="userSpaceOnUse"
       gradientTransform="translate(266.38847,177.3518)"
       x1="310"
       y1="194.09448"
       x2="310"
       y2="214.09448" />
    <linearGradient
       inkscape:collect="always"
       xlink:href="#linearGradient3983"
       id="linearGradient3727"
       gradientUnits="userSpaceOnUse"
       gradientTransform="translate(286.78537,-142.02329)"
       x1="310"
       y1="194.09448"
       x2="310"
       y2="214.09448" />
    <linearGradient
       inkscape:collect="always"
       xlink:href="#linearGradient3983"
       id="linearGradient3729"
       gradientUnits="userSpaceOnUse"
       gradientTransform="matrix(0,0.5,-0.44124318,0,431.54,625.92148)"
       x1="310"
       y1="194.09448"
       x2="310"
       y2="214.09448" />
    <radialGradient
       inkscape:collect="always"
       xlink:href="#linearGradient4492"
       id="radialGradient3731"
       gradientUnits="userSpaceOnUse"
       gradientTransform="matrix(1,0,0,0.95969218,-9.0000021,178.35179)"
       cx="350.41257"
       cy="463.04285"
       fx="350.41257"
       fy="463.04285"
       r="151.29004" />
  </defs>
  <sodipodi:namedview
     id="base"
     pagecolor="#ffffff"
     bordercolor="#666666"
     borderopacity="1.0"
     inkscape:pageopacity="0"
     inkscape:pageshadow="2"
     inkscape:zoom="1"
     inkscape:cx="111.86745"
     inkscape:cy="227.24346"
     inkscape:document-units="px"
     inkscape:current-layer="layer2"
     showgrid="false"
     inkscape:window-width="1280"
     inkscape:window-height="977"
     inkscape:window-x="0"
     inkscape:window-y="-3"
     inkscape:window-maximized="1"
     inkscape:snap-global="false"
     showguides="true"
     inkscape:snap-bbox="true"
     inkscape:snap-nodes="true"
     inkscape:object-paths="true"
     inkscape:snap-intersection-paths="true"
     inkscape:object-nodes="false"
     inkscape:snap-smooth-nodes="false"
     inkscape:snap-midpoints="false"
     inkscape:snap-object-midpoints="false"
     inkscape:snap-center="false"
     inkscape:snap-page="false"
     inkscape:bbox-paths="false"
     inkscape:bbox-nodes="false"
     inkscape:snap-bbox-edge-midpoints="false"
     inkscape:snap-bbox-midpoints="false"
     inkscape:guide-bbox="true"
     inkscape:snap-grids="true">
    <inkscape:grid
       type="xygrid"
       id="grid3595"
       empspacing="5"
       visible="true"
       enabled="true"
       snapvisiblegridlinesonly="true" />
  </sodipodi:namedview>
  <metadata
     id="metadata7">
    <rdf:RDF>
      <cc:Work
         rdf:about="">
        <dc:format>image/svg+xml</dc:format>
        <dc:type
           rdf:resource="http://purl.org/dc/dcmitype/StillImage" />
        <dc:title></dc:title>
      </cc:Work>
    </rdf:RDF>
  </metadata>
  <g
     inkscape:groupmode="layer"
     id="layer2"
     inkscape:label="Layer"
     transform="translate(-196.12254,-291.23473)">
    <g
       id="g3692"
       transform="translate(6,-14)">
      <g
         inkscape:export-ydpi="7.8747792"
         inkscape:export-xdpi="7.8747792"
         transform="translate(0,-60)"
         id="g4476">
        <g
           id="g4017"
           transform="matrix(0.22062159,0.4330127,-0.3821278,0.25,446.79071,439.39145)">
          <path
             style="fill:url(#linearGradient3725);fill-opacity:1;stroke:none"
             d="m 240,194.09448 70,0 0,20 -70,0 0,-20 z"
             id="path4019" />
          <rect
             style="fill:#34343b;fill-opacity:1;stroke:none"
             id="rect4021"
             width="35"
             height="30"
             x="305"
             y="189.09448"
             ry="10.434784"
             rx="11.824301" />
        </g>
        <g
           transform="matrix(-0.22062159,0.4330127,-0.3821278,-0.25,406.56262,539.33451)"
           id="g4007">
          <path
             id="path4009"
             d="m 240,194.09448 70,0 0,20 -70,0 0,-20 z"
             style="fill:url(#linearGradient3727);fill-opacity:1;stroke:none" />
          <rect
             rx="11.824301"
             ry="10.434784"
             y="189.09448"
             x="305"
             height="30"
             width="35"
             id="rect4011"
             style="fill:#34343b;fill-opacity:1;stroke:none" />
        </g>
        <path
           id="path3997"
           d="m 354.89713,586.23394 0,35 -8.82486,0 0,-35 8.82486,0 z"
           style="fill:url(#linearGradient3729);fill-opacity:1;stroke:none" />
        <rect
           rx="5.217392"
           ry="5.217392"
           y="-357.10333"
           x="618.73395"
           height="13.237295"
           width="17.5"
           id="rect3999"
           style="fill:#383838;fill-opacity:1;stroke:none"
           transform="matrix(0,1,-1,0,0,0)" />
      </g>
      <path
         inkscape:export-ydpi="7.8747792"
         inkscape:export-xdpi="7.8747792"
         inkscape:export-filename="/dati/linux1/P/enrico-qtcreator/src/plugins/inspector/images/g4476.png"
         sodipodi:nodetypes="caaaaaaaaa"
         id="rect3728"
         d="m 296.65303,329.23394 c 33.74426,-13.84396 73.91908,-13.84396 107.66334,0 34.56408,14.1803 67.81091,43.01305 84.71869,80 13.57335,29.69264 14.42855,68.93354 7.05989,102 -5.31393,23.84596 -17.76987,47.49773 -35.29945,62 -31.02094,25.6637 -72.84228,34.09394 -111.25084,34 -37.80385,-0.0925 -78.8864,-8.66574 -109.37075,-34 -17.50193,-14.54511 -29.96975,-38.15856 -35.29946,-62 -7.53457,-33.7045 -6.76238,-71.70502 7.05989,-102 16.88234,-37.00187 50.15461,-65.8197 84.71869,-80 z"
         style="fill:url(#radialGradient3731);fill-opacity:1;stroke:#000000;stroke-width:8;stroke-miterlimit:4;stroke-opacity:1;stroke-dasharray:none" />
      <path
         inkscape:export-ydpi="7.8747792"
         inkscape:export-xdpi="7.8747792"
         inkscape:export-filename="/dati/linux1/P/enrico-qtcreator/src/plugins/inspector/images/g4476.png"
         transform="matrix(0.88248636,0,0,1,58.943092,0)"
         style="fill:#ffffff;fill-opacity:1;stroke:none;filter:url(#filter3977)"
         d="m 195.86387,548.73394 c 0,0 -30,-90 20,-180 110,-10 230,0 230,0 20,90 10,180 10,180 -130,20 -260,-0.34782 -260,0 z"
         id="path3967"
         sodipodi:nodetypes="cccc" />
      <path
         inkscape:export-filename="/dati/linux1/P/enrico-qtcreator/src/plugins/inspector/images/g4476.png"
         inkscape:export-ydpi="7.8747792"
         inkscape:export-xdpi="7.8747792"
         sodipodi:nodetypes="ccccc"
         id="path3731"
         d="m 234.92072,542.2122 c 0,0 -27.51807,-77.91304 16.60625,-167.91304 97.0735,-10 194.27621,1.82608 194.27621,1.82608 45.91059,57.04348 20.56399,160.6087 20.56399,160.6087 -116.02757,36.26087 -231.44645,5.13044 -231.44645,5.47826 z"
         style="opacity:0.85046728;fill:#000000;fill-opacity:1;stroke:#000000;stroke-width:1px;stroke-linecap:butt;stroke-linejoin:miter;stroke-opacity:1;filter:url(#filter4500)" />
      <g
         inkscape:export-ydpi="7.8747792"
         inkscape:export-xdpi="7.8747792"
         inkscape:export-filename="/dati/linux1/P/enrico-qtcreator/src/plugins/inspector/images/g4476.png"
         transform="matrix(0.88248636,0,0,1,113.14149,31.610572)"
         id="g3887">
        <path
           style="fill:#ffffff;fill-opacity:1;stroke:none"
           id="path3753"
           d="m 138.01872,453.82367 c 3.93137,0.11669 7.86296,0.23138 11.79442,0.34909 8.97805,0.30064 17.95557,0.54617 26.93839,0.62909 3.93764,0.0189 7.87424,-0.0695 11.8118,-0.0602 1.67275,0.004 3.26756,-0.0304 4.89896,0.3349 1.23796,0.19001 0.25859,1.26694 -0.12098,1.91529 0,0 -0.21491,0.17948 -0.21491,0.17948 l 0,0 c -0.87773,0.34374 -1.40878,1.35121 -2.50858,1.24511 -5.67257,1.03465 -11.53818,0.15603 -17.25854,0.34904 -9.09894,-0.10051 -18.19811,-0.17567 -27.29752,-0.21634 -4.02288,-0.0246 -8.04879,-0.12622 -12.07049,-0.01 0,0 4.02745,-4.71554 4.02745,-4.71554 z" />
        <path
           style="fill:#ffffff;fill-opacity:1;stroke:none"
           id="path3755"
           d="m 196.25546,395.1538 c -0.87467,3.40458 -0.98244,6.94206 -1.17551,10.43387 -0.19546,6.26014 -0.7385,12.49802 -1.32562,18.73111 -0.61296,6.45199 -1.06158,12.91759 -1.78197,19.359 -0.77823,4.53204 0.0197,1.00309 -1.61317,5.62953 -1.20883,3.42499 0.23327,0.51335 -1.59806,3.79728 0,0 -0.21413,0.18041 -0.21413,0.18041 l 0,0 c -0.29778,-0.0788 -0.69859,0.002 -0.89333,-0.23629 -0.26518,-0.32496 -0.13326,-0.83662 -0.29721,-1.22267 -1.17266,-2.7612 -0.7596,0.45472 -0.78462,-3.61756 0.41007,-6.40996 1.0027,-12.80624 1.59103,-19.20187 0.55171,-6.18882 1.11679,-12.38025 1.22449,-18.597 0.089,-3.42202 0.16499,-6.86156 0.71624,-10.24734 0,0 6.15186,-5.00847 6.15186,-5.00847 z" />
        <path
           style="fill:#ffffff;fill-opacity:1;stroke:none"
           id="path3757"
           d="m 192.78334,394.46785 c 4.73638,0.20068 9.47462,0.2198 14.21429,0.17105 8.80844,-0.22198 17.60726,-0.706 26.41933,-0.47833 4.03988,1.18865 2.03174,0.72265 6.01816,1.42468 0,0 -0.18145,0.21325 -0.18145,0.21325 l 0,0 c -5.58689,0.91957 -2.63121,0.31089 -8.84547,1.92781 -9.29432,1.2472 -18.64125,1.98156 -28.01316,2.32888 -4.86097,0.19098 -9.7199,0.26097 -14.58425,0.25382 0,0 4.97255,-5.84116 4.97255,-5.84116 z" />
        <path
           style="fill:#ffffff;fill-opacity:1;stroke:none"
           id="path3759"
           d="m 239.46017,391.5685 c -1.25245,6.29432 -1.45789,12.75778 -1.93558,19.14537 -0.8316,10.72017 -1.65172,21.4398 -2.30443,32.17256 -0.70375,4.48825 0.13399,9.28231 -1.08217,13.70682 -0.2704,0.98373 -0.73734,1.90255 -1.10601,2.85382 0,0 -0.21158,0.1834 -0.21158,0.1834 l 0,0 c -0.45624,-0.24242 -1.05932,-0.3135 -1.36871,-0.72725 -1.5516,-2.07493 -0.51453,-9.72419 -0.72304,-12.22101 0.45856,-10.54774 1.11595,-21.08511 1.65313,-31.62892 0.27844,-6.23376 0.41431,-12.5001 1.19571,-18.69494 0,0 5.88268,-4.78985 5.88268,-4.78985 z" />
        <path
           style="fill:#ffffff;fill-opacity:1;stroke:none"
           id="path3761"
           d="m 237.13809,448.85608 c 4.04087,0.007 8.07042,0.36369 12.10173,0.60273 6.21379,0.42894 12.44291,0.3613 18.66645,0.31749 4.97587,0.0419 1.036,-0.0359 5.65989,0.16654 1.43501,0.0628 2.73762,-0.0922 4.07829,0.51741 0.38414,0.17466 0.66167,0.52391 0.99251,0.78586 0,0 -0.17878,0.21549 -0.17878,0.21549 l 0,0 c -0.91887,0.44191 -1.81139,0.9434 -2.7566,1.32572 -3.89943,1.57727 -8.19253,1.89502 -12.3297,2.33049 -6.32705,0.32965 -12.66499,0.35491 -18.99129,-0.0419 -3.93604,-0.26483 -7.86852,-0.56922 -11.79785,-0.91886 0,0 4.55535,-5.30102 4.55535,-5.30102 z" />
        <path
           style="fill:#ffffff;fill-opacity:1;stroke:none"
           id="path3763"
           d="m 283.11839,388.82978 c -0.7987,5.27019 -0.9369,10.61414 -1.12545,15.93259 -0.26698,9.92226 -0.36587,19.84694 -0.79381,29.76438 -0.24892,4.03472 -0.22767,8.09808 -1.11758,12.06471 -1.56874,6.99247 -0.58216,0.42165 -1.28494,5.70973 0,0 -0.21217,0.18272 -0.21217,0.18272 l 0,0 c -0.64694,-2.27102 -0.179,-1.1411 -1.47575,-3.35907 -1.16143,-3.30822 -0.47953,-6.9852 -0.85302,-10.38614 -0.20404,-9.65501 -0.1923,-19.31161 -0.1533,-28.96833 0.0501,-5.2168 -1.7e-4,-10.46268 0.59201,-15.65271 0,0 6.42401,-5.28788 6.42401,-5.28788 z" />
        <path
           style="fill:#ffffff;fill-opacity:1;stroke:none"
           id="path3765"
           d="m 278.4429,389.1185 c 3.19095,1.90189 6.82188,2.72883 10.41429,3.49135 9.02913,1.62086 18.19122,2.35281 27.33478,2.96768 11.7749,0.92615 23.59011,0.82944 35.38197,1.37376 5.90579,0.55758 3.08817,0.17096 8.46029,1.10434 0,0 -0.18266,0.21221 -0.18266,0.21221 l 0,0 c -6.47537,0.46617 -3.14196,0.23147 -10.00039,0.7022 -12.34604,0.6206 -24.70694,0.64767 -37.06647,0.55855 -9.46345,-0.27304 -18.95901,-0.52009 -28.33395,-1.95727 -3.74743,-0.6763 -7.5454,-1.38425 -10.8687,-3.35128 0,0 4.86084,-5.10154 4.86084,-5.10154 z" />
        <path
           style="fill:#ffffff;fill-opacity:1;stroke:none"
           id="path3783"
           d="m 357.31264,395.28158 c -0.10513,2.33553 -0.006,4.6863 0.10453,7.02199 0.15534,2.17918 0.5583,4.31138 0.70676,6.48753 0.19244,1.73532 0.13072,3.47272 0.0206,5.20977 -0.3076,3.79502 -0.34715,7.60366 -0.40899,11.40843 -0.0322,6.73732 -0.15204,13.47295 -0.55372,20.1989 -0.33561,4.86898 -1.03422,9.70073 -1.3974,14.56644 -0.36066,0.95218 0.007,2.13806 -0.32347,3.09236 -0.2029,0.58566 -0.9629,1.64453 -1.2812,2.12089 0,0 -0.19183,0.20398 -0.19183,0.20398 l 0,0 c -2.11887,1.36624 -2.82565,1.73749 -3.40912,-0.98701 -0.20753,-4.72411 0.53009,-9.41751 0.82366,-14.12273 0.43616,-6.67031 0.60186,-13.34571 0.42894,-20.03019 -0.0624,-3.73436 -0.0944,-7.47204 0.0979,-11.20358 0.0895,-1.78032 0.21308,-3.55852 0.23511,-5.34156 0.0392,-2.54835 0.3325,-5.07078 0.56414,-7.60953 0.17191,-2.52349 0.35214,-5.04723 0.50516,-7.57087 0,0 4.07899,-3.44482 4.07899,-3.44482 z" />
        <path
           style="fill:#ffffff;fill-opacity:1;stroke:none"
           id="path3785"
           d="m 357.03899,448.14413 c 3.0025,0.63862 6.05372,0.76009 9.11106,0.69098 6.58093,-0.37543 13.10618,-1.38348 19.62672,-2.30824 2.06124,0.0705 6.92846,-1.93832 8.67667,-0.2106 0.44848,0.44323 0.36347,1.20757 0.54521,1.81136 0,0 -0.17949,0.2149 -0.17949,0.2149 l 0,0 c -1.32495,0.77074 -2.59595,1.64277 -3.97485,2.31222 -3.3559,1.6293 -6.85942,1.92382 -10.49738,2.41534 -6.63823,0.95427 -13.27168,2.043 -19.96274,2.54862 -3.15216,0.0788 -6.27358,-0.12625 -9.3924,-0.60404 0,0 6.0472,-6.87054 6.0472,-6.87054 z" />
        <path
           d="m 138.01872,453.82367 c 3.93137,0.11669 7.86296,0.23138 11.79442,0.34909 8.97805,0.30064 17.95557,0.54617 26.93839,0.62909 3.93764,0.0189 7.87424,-0.0695 11.8118,-0.0602 1.67275,0.004 3.26756,-0.0304 4.89896,0.3349 1.23796,0.19001 0.25859,1.26694 -0.12098,1.91529 0,0 -0.21491,0.17948 -0.21491,0.17948 l 0,0 c -0.87773,0.34374 -1.40878,1.35121 -2.50858,1.24511 -5.67257,1.03465 -11.53818,0.15603 -17.25854,0.34904 -9.09894,-0.10051 -18.19811,-0.17567 -27.29752,-0.21634 -4.02288,-0.0246 -8.04879,-0.12622 -12.07049,-0.01 0,0 4.02745,-4.71554 4.02745,-4.71554 z"
           id="path3787"
           style="fill:#ffffff;fill-opacity:1;stroke:none;filter:url(#filter3841)" />
        <path
           d="m 196.25546,395.1538 c -0.87467,3.40458 -0.98244,6.94206 -1.17551,10.43387 -0.19546,6.26014 -0.7385,12.49802 -1.32562,18.73111 -0.61296,6.45199 -1.06158,12.91759 -1.78197,19.359 -0.77823,4.53204 0.0197,1.00309 -1.61317,5.62953 -1.20883,3.42499 0.23327,0.51335 -1.59806,3.79728 0,0 -0.21413,0.18041 -0.21413,0.18041 l 0,0 c -0.29778,-0.0788 -0.69859,0.002 -0.89333,-0.23629 -0.26518,-0.32496 -0.13326,-0.83662 -0.29721,-1.22267 -1.17266,-2.7612 -0.7596,0.45472 -0.78462,-3.61756 0.41007,-6.40996 1.0027,-12.80624 1.59103,-19.20187 0.55171,-6.18882 1.11679,-12.38025 1.22449,-18.597 0.089,-3.42202 0.16499,-6.86156 0.71624,-10.24734 0,0 6.15186,-5.00847 6.15186,-5.00847 z"
           id="path3789"
           style="fill:#ffffff;fill-opacity:1;stroke:none;filter:url(#filter3845)" />
        <path
           d="m 192.78334,394.46785 c 4.73638,0.20068 9.47462,0.2198 14.21429,0.17105 8.80844,-0.22198 17.60726,-0.706 26.41933,-0.47833 4.03988,1.18865 2.03174,0.72265 6.01816,1.42468 0,0 -0.18145,0.21325 -0.18145,0.21325 l 0,0 c -5.58689,0.91957 -2.63121,0.31089 -8.84547,1.92781 -9.29432,1.2472 -18.64125,1.98156 -28.01316,2.32888 -4.86097,0.19098 -9.7199,0.26097 -14.58425,0.25382 0,0 4.97255,-5.84116 4.97255,-5.84116 z"
           id="path3791"
           style="fill:#ffffff;fill-opacity:1;stroke:none;filter:url(#filter3849)" />
        <path
           d="m 239.46017,391.5685 c -1.25245,6.29432 -1.45789,12.75778 -1.93558,19.14537 -0.8316,10.72017 -1.65172,21.4398 -2.30443,32.17256 -0.70375,4.48825 0.13399,9.28231 -1.08217,13.70682 -0.2704,0.98373 -0.73734,1.90255 -1.10601,2.85382 0,0 -0.21158,0.1834 -0.21158,0.1834 l 0,0 c -0.45624,-0.24242 -1.05932,-0.3135 -1.36871,-0.72725 -1.5516,-2.07493 -0.51453,-9.72419 -0.72304,-12.22101 0.45856,-10.54774 1.11595,-21.08511 1.65313,-31.62892 0.27844,-6.23376 0.41431,-12.5001 1.19571,-18.69494 0,0 5.88268,-4.78985 5.88268,-4.78985 z"
           id="path3793"
           style="fill:#ffffff;fill-opacity:1;stroke:none;filter:url(#filter3853)" />
        <path
           d="m 237.13809,448.85608 c 4.04087,0.007 8.07042,0.36369 12.10173,0.60273 6.21379,0.42894 12.44291,0.3613 18.66645,0.31749 4.97587,0.0419 1.036,-0.0359 5.65989,0.16654 1.43501,0.0628 2.73762,-0.0922 4.07829,0.51741 0.38414,0.17466 0.66167,0.52391 0.99251,0.78586 0,0 -0.17878,0.21549 -0.17878,0.21549 l 0,0 c -0.91887,0.44191 -1.81139,0.9434 -2.7566,1.32572 -3.89943,1.57727 -8.19253,1.89502 -12.3297,2.33049 -6.32705,0.32965 -12.66499,0.35491 -18.99129,-0.0419 -3.93604,-0.26483 -7.86852,-0.56922 -11.79785,-0.91886 0,0 4.55535,-5.30102 4.55535,-5.30102 z"
           id="path3795"
           style="fill:#ffffff;fill-opacity:1;stroke:none;filter:url(#filter3857)" />
        <path
           d="m 283.11839,388.82978 c -0.7987,5.27019 -0.9369,10.61414 -1.12545,15.93259 -0.26698,9.92226 -0.36587,19.84694 -0.79381,29.76438 -0.24892,4.03472 -0.22767,8.09808 -1.11758,12.06471 -1.56874,6.99247 -0.58216,0.42165 -1.28494,5.70973 0,0 -0.21217,0.18272 -0.21217,0.18272 l 0,0 c -0.64694,-2.27102 -0.179,-1.1411 -1.47575,-3.35907 -1.16143,-3.30822 -0.47953,-6.9852 -0.85302,-10.38614 -0.20404,-9.65501 -0.1923,-19.31161 -0.1533,-28.96833 0.0501,-5.2168 -1.7e-4,-10.46268 0.59201,-15.65271 0,0 6.42401,-5.28788 6.42401,-5.28788 z"
           id="path3797"
           style="fill:#ffffff;fill-opacity:1;stroke:none;filter:url(#filter3861)" />
        <path
           d="m 278.4429,389.1185 c 3.19095,1.90189 6.82188,2.72883 10.41429,3.49135 9.02913,1.62086 18.19122,2.35281 27.33478,2.96768 11.7749,0.92615 23.59011,0.82944 35.38197,1.37376 5.90579,0.55758 3.08817,0.17096 8.46029,1.10434 0,0 -0.18266,0.21221 -0.18266,0.21221 l 0,0 c -6.47537,0.46617 -3.14196,0.23147 -10.00039,0.7022 -12.34604,0.6206 -24.70694,0.64767 -37.06647,0.55855 -9.46345,-0.27304 -18.95901,-0.52009 -28.33395,-1.95727 -3.74743,-0.6763 -7.5454,-1.38425 -10.8687,-3.35128 0,0 4.86084,-5.10154 4.86084,-5.10154 z"
           id="path3799"
           style="fill:#ffffff;fill-opacity:1;stroke:none;filter:url(#filter3865)" />
        <path
           d="m 357.31264,395.28158 c -0.10513,2.33553 -0.006,4.6863 0.10453,7.02199 0.15534,2.17918 0.5583,4.31138 0.70676,6.48753 0.19244,1.73532 0.13072,3.47272 0.0206,5.20977 -0.3076,3.79502 -0.34715,7.60366 -0.40899,11.40843 -0.0322,6.73732 -0.15204,13.47295 -0.55372,20.1989 -0.33561,4.86898 -1.03422,9.70073 -1.3974,14.56644 -0.36066,0.95218 0.007,2.13806 -0.32347,3.09236 -0.2029,0.58566 -0.9629,1.64453 -1.2812,2.12089 0,0 -0.19183,0.20398 -0.19183,0.20398 l 0,0 c -2.11887,1.36624 -2.82565,1.73749 -3.40912,-0.98701 -0.20753,-4.72411 0.53009,-9.41751 0.82366,-14.12273 0.43616,-6.67031 0.60186,-13.34571 0.42894,-20.03019 -0.0624,-3.73436 -0.0944,-7.47204 0.0979,-11.20358 0.0895,-1.78032 0.21308,-3.55852 0.23511,-5.34156 0.0392,-2.54835 0.3325,-5.07078 0.56414,-7.60953 0.17191,-2.52349 0.35214,-5.04723 0.50516,-7.57087 0,0 4.07899,-3.44482 4.07899,-3.44482 z"
           id="path3801"
           style="fill:#ffffff;fill-opacity:1;stroke:none;filter:url(#filter3869)" />
        <path
           d="m 357.03899,448.14413 c 3.0025,0.63862 6.05372,0.76009 9.11106,0.69098 6.58093,-0.37543 13.10618,-1.38348 19.62672,-2.30824 2.06124,0.0705 6.92846,-1.93832 8.67667,-0.2106 0.44848,0.44323 0.36347,1.20757 0.54521,1.81136 0,0 -0.17949,0.2149 -0.17949,0.2149 l 0,0 c -1.32495,0.77074 -2.59595,1.64277 -3.97485,2.31222 -3.3559,1.6293 -6.85942,1.92382 -10.49738,2.41534 -6.63823,0.95427 -13.27168,2.043 -19.96274,2.54862 -3.15216,0.0788 -6.27358,-0.12625 -9.3924,-0.60404 0,0 6.0472,-6.87054 6.0472,-6.87054 z"
           id="path3803"
           style="fill:#ffffff;fill-opacity:1;stroke:none;filter:url(#filter3873)" />
      </g>
    </g>
  </g>
</svg>
