<?xml version="1.0" encoding="UTF-8" standalone="no"?>
<!-- Created with Inkscape (http://www.inkscape.org/) -->

<svg
   xmlns:dc="http://purl.org/dc/elements/1.1/"
   xmlns:cc="http://creativecommons.org/ns#"
   xmlns:rdf="http://www.w3.org/1999/02/22-rdf-syntax-ns#"
   xmlns:svg="http://www.w3.org/2000/svg"
   xmlns="http://www.w3.org/2000/svg"
   xmlns:xlink="http://www.w3.org/1999/xlink"
   xmlns:sodipodi="http://sodipodi.sourceforge.net/DTD/sodipodi-0.dtd"
   xmlns:inkscape="http://www.inkscape.org/namespaces/inkscape"
   width="300"
   height="300"
   id="svg2"
   version="1.1"
   inkscape:version="0.47 r22583"
   sodipodi:docname="probe-watermark.svg"
   inkscape:export-filename="/dati/linux1/root/Proposta Tesi/probe-icon-32.png"
   inkscape:export-xdpi="4.6700001"
   inkscape:export-ydpi="4.6700001">
  <defs
     id="defs4">
    <linearGradient
       id="linearGradient4492">
      <stop
         style="stop-color:#e8eee6;stop-opacity:1;"
         offset="0"
         id="stop4494" />
      <stop
         style="stop-color:#e8eee6;stop-opacity:1;"
         offset="1"
         id="stop4496" />
    </linearGradient>
    <linearGradient
       id="linearGradient3983">
      <stop
         style="stop-color:#7c7c7c;stop-opacity:1;"
         offset="0"
         id="stop3985" />
      <stop
         id="stop3991"
         offset="0.60714287"
         style="stop-color:#dfdfdf;stop-opacity:1;" />
      <stop
         style="stop-color:#818181;stop-opacity:1;"
         offset="1"
         id="stop3987" />
    </linearGradient>
    <linearGradient
       inkscape:collect="always"
       id="linearGradient3662">
      <stop
         style="stop-color:#b8b8b8;stop-opacity:1;"
         offset="0"
         id="stop3664" />
      <stop
         style="stop-color:#b8b8b8;stop-opacity:0;"
         offset="1"
         id="stop3666" />
    </linearGradient>
    <linearGradient
       inkscape:collect="always"
       id="linearGradient3654">
      <stop
         style="stop-color:#aaaaaa;stop-opacity:1;"
         offset="0"
         id="stop3656" />
      <stop
         style="stop-color:#aaaaaa;stop-opacity:0;"
         offset="1"
         id="stop3658" />
    </linearGradient>
    <filter
       inkscape:collect="always"
       id="filter3841"
       x="-0.1691912"
       width="1.3383824"
       y="-1.9901522"
       height="4.9803047"
       color-interpolation-filters="sRGB">
      <feGaussianBlur
         inkscape:collect="always"
         stdDeviation="4.235235"
         id="feGaussianBlur3843" />
    </filter>
    <filter
       inkscape:collect="always"
       id="filter3845"
       x="-1.0441947"
       width="3.0883894"
       y="-0.17485557"
       height="1.3497111"
       color-interpolation-filters="sRGB">
      <feGaussianBlur
         inkscape:collect="always"
         stdDeviation="4.235235"
         id="feGaussianBlur3847" />
    </filter>
    <filter
       inkscape:collect="always"
       id="filter3849"
       x="-0.19689482"
       width="1.3937896"
       y="-1.6372303"
       height="4.2744608"
       color-interpolation-filters="sRGB">
      <feGaussianBlur
         inkscape:collect="always"
         stdDeviation="4.235235"
         id="feGaussianBlur3851" />
    </filter>
    <filter
       inkscape:collect="always"
       id="filter3853"
       x="-1.1446682"
       width="3.2893364"
       y="-0.14934278"
       height="1.2986856"
       color-interpolation-filters="sRGB">
      <feGaussianBlur
         inkscape:collect="always"
         stdDeviation="4.235235"
         id="feGaussianBlur3855" />
    </filter>
    <filter
       inkscape:collect="always"
       id="filter3857"
       x="-0.22070862"
       width="1.4414173"
       y="-1.5605887"
       height="4.1211772"
       color-interpolation-filters="sRGB">
      <feGaussianBlur
         inkscape:collect="always"
         stdDeviation="4.235235"
         id="feGaussianBlur3859" />
    </filter>
    <filter
       inkscape:collect="always"
       id="filter3861"
       x="-1.4440452"
       width="3.8880906"
       y="-0.15968429"
       height="1.3193686"
       color-interpolation-filters="sRGB">
      <feGaussianBlur
         inkscape:collect="always"
         stdDeviation="4.235235"
         id="feGaussianBlur3863" />
    </filter>
    <filter
       inkscape:collect="always"
       id="filter3865"
       x="-0.11757442"
       width="1.2351488"
       y="-0.97290057"
       height="2.945801"
       color-interpolation-filters="sRGB">
      <feGaussianBlur
         inkscape:collect="always"
         stdDeviation="4.235235"
         id="feGaussianBlur3867" />
    </filter>
    <filter
       inkscape:collect="always"
       id="filter3869"
       x="-1.3190989"
       width="3.6381979"
       y="-0.14244141"
       height="1.2848828"
       color-interpolation-filters="sRGB">
      <feGaussianBlur
         inkscape:collect="always"
         stdDeviation="4.235235"
         id="feGaussianBlur3871" />
    </filter>
    <filter
       inkscape:collect="always"
       id="filter3873"
       x="-0.23097681"
       width="1.4619536"
       y="-1.0142232"
       height="3.0284462"
       color-interpolation-filters="sRGB">
      <feGaussianBlur
         inkscape:collect="always"
         stdDeviation="4.235235"
         id="feGaussianBlur3875" />
    </filter>
    <filter
       inkscape:collect="always"
       id="filter3977"
       color-interpolation-filters="sRGB">
      <feGaussianBlur
         inkscape:collect="always"
         stdDeviation="4.6468216"
         id="feGaussianBlur3979" />
    </filter>
    <linearGradient
       inkscape:collect="always"
       xlink:href="#linearGradient3662"
       id="linearGradient4080"
       gradientUnits="userSpaceOnUse"
       x1="504.5"
       y1="296.59448"
       x2="605.97705"
       y2="297.9086" />
    <linearGradient
       inkscape:collect="always"
       xlink:href="#linearGradient3654"
       id="linearGradient4082"
       gradientUnits="userSpaceOnUse"
       x1="553.34564"
       y1="279.06885"
       x2="533.83606"
       y2="342.8605" />
    <linearGradient
       inkscape:collect="always"
       xlink:href="#linearGradient3983"
       id="linearGradient4486"
       gradientUnits="userSpaceOnUse"
       x1="310"
       y1="194.09448"
       x2="310"
       y2="214.09448" />
    <linearGradient
       inkscape:collect="always"
       xlink:href="#linearGradient3983"
       id="linearGradient4488"
       gradientUnits="userSpaceOnUse"
       x1="310"
       y1="194.09448"
       x2="310"
       y2="214.09448" />
    <linearGradient
       inkscape:collect="always"
       xlink:href="#linearGradient3983"
       id="linearGradient4490"
       gradientUnits="userSpaceOnUse"
       gradientTransform="matrix(0,0.5,-0.44124318,0,440.54,466.23394)"
       x1="310"
       y1="194.09448"
       x2="310"
       y2="214.09448" />
    <filter
       inkscape:collect="always"
       id="filter4500"
       color-interpolation-filters="sRGB">
      <feGaussianBlur
         inkscape:collect="always"
         stdDeviation="2.1546686"
         id="feGaussianBlur4502" />
    </filter>
    <radialGradient
       inkscape:collect="always"
       xlink:href="#linearGradient4492"
       id="radialGradient3757"
       gradientUnits="userSpaceOnUse"
       gradientTransform="matrix(0.44258851,0,0,0.42474873,120.99319,319.87999)"
       cx="350.41257"
       cy="463.04285"
       fx="350.41257"
       fy="463.04285"
       r="151.29004" />
    <linearGradient
       inkscape:collect="always"
       xlink:href="#linearGradient3983"
       id="linearGradient2905"
       gradientUnits="userSpaceOnUse"
       gradientTransform="matrix(0,0.10343705,-0.19528916,0,315.72113,555.69961)"
       x1="310"
       y1="194.09448"
       x2="310"
       y2="214.09448" />
  </defs>
  <sodipodi:namedview
     id="base"
     pagecolor="#ffffff"
     bordercolor="#666666"
     borderopacity="1.0"
     inkscape:pageopacity="0"
     inkscape:pageshadow="2"
     inkscape:zoom="1.4142136"
     inkscape:cx="111.58321"
     inkscape:cy="146.58996"
     inkscape:document-units="px"
     inkscape:current-layer="layer2"
     showgrid="false"
     inkscape:window-width="1280"
     inkscape:window-height="753"
     inkscape:window-x="0"
     inkscape:window-y="-3"
     inkscape:window-maximized="1"
     inkscape:snap-global="false"
     showguides="true"
     inkscape:snap-bbox="true"
     inkscape:snap-nodes="true"
     inkscape:object-paths="true"
     inkscape:snap-intersection-paths="true"
     inkscape:object-nodes="false"
     inkscape:snap-smooth-nodes="false"
     inkscape:snap-midpoints="false"
     inkscape:snap-object-midpoints="false"
     inkscape:snap-center="false"
     inkscape:snap-page="false"
     inkscape:bbox-paths="false"
     inkscape:bbox-nodes="false"
     inkscape:snap-bbox-edge-midpoints="false"
     inkscape:snap-bbox-midpoints="false"
     inkscape:guide-bbox="true"
     inkscape:snap-grids="true">
    <inkscape:grid
       type="xygrid"
       id="grid3595"
       empspacing="5"
       visible="true"
       enabled="true"
       snapvisiblegridlinesonly="true" />
  </sodipodi:namedview>
  <metadata
     id="metadata7">
    <rdf:RDF>
      <cc:Work
         rdf:about="">
        <dc:format>image/svg+xml</dc:format>
        <dc:type
           rdf:resource="http://purl.org/dc/dcmitype/StillImage" />
        <dc:title />
      </cc:Work>
    </rdf:RDF>
  </metadata>
  <g
     inkscape:groupmode="layer"
     id="layer2"
     inkscape:label="Layer"
     transform="translate(-199.12254,-346.95368)">
    <path
       style="opacity:0.1;fill:#d6d7ef;stroke:#000000;stroke-width:0.88517702;stroke-linecap:butt;stroke-linejoin:miter;stroke-miterlimit:4;stroke-opacity:1;stroke-dasharray:none"
       d="m 311.42171,398.38732 0,57.53651 36.55505,21.4932 36.49972,21.47938 39.8053,23.41569 0,-75.24004 -112.86007,-48.68474 z"
       id="path3613"
       sodipodi:nodetypes="ccccccc" />
    <path
       style="opacity:0.1;fill:#8d91d0;fill-opacity:1;stroke:#000000;stroke-width:0.88517702;stroke-linecap:butt;stroke-linejoin:miter;stroke-miterlimit:4;stroke-opacity:1;stroke-dasharray:none"
       d="m 311.42171,385.10999 61.96239,-8.85177 108.43419,35.40708 -57.53651,15.4906 -112.86007,-42.04591 z"
       id="path3597" />
    <path
       style="opacity:0.1;fill:#cccdea;stroke:#000000;stroke-width:0.88517702;stroke-linecap:butt;stroke-linejoin:miter;stroke-miterlimit:4;stroke-opacity:1;stroke-dasharray:none"
       d="m 424.28178,522.31243 0,-75.24005 57.53651,-17.70354 0,75.24005 -57.53651,17.70354 z"
       id="path3599"
       sodipodi:nodetypes="ccccc" />
    <path
       style="opacity:0.1;fill:#8d91d0;stroke:#000000;stroke-width:0.88517702;stroke-linecap:butt;stroke-linejoin:miter;stroke-miterlimit:4;stroke-opacity:1;stroke-dasharray:none"
       d="m 311.42171,398.38764 112.86007,48.68474 0,-19.91648 -112.86007,-42.04591 0,13.27765 z"
       id="path3615"
       sodipodi:nodetypes="ccccc" />
    <path
       style="opacity:0.1;fill:#7382b3;stroke:#000000;stroke-width:0.88517702;stroke-linecap:butt;stroke-linejoin:miter;stroke-miterlimit:4;stroke-opacity:1;stroke-dasharray:none"
       d="m 481.81829,429.36884 -57.53651,17.70354 0,-19.91648 57.53651,-15.4906 0,17.70354 z"
       id="path3617"
       sodipodi:nodetypes="ccccc" />
    <path
       style="opacity:0.1;fill:#3d4970;fill-opacity:1;stroke:none"
       id="path3718"
       d="m 415.46598,432.74001 c 0.28783,0.9106 0.81759,1.71693 1.39235,2.4699 0.18233,0.2923 0.38768,0.59187 0.72798,0.71319 0.0626,0.0223 0.24463,0.0742 0.22323,-0.0857 -0.0115,-0.0856 -0.0684,-0.15861 -0.10263,-0.23791 -1.23995,1.27431 -2.45747,2.57086 -3.71986,3.82295 -0.0453,0.0449 0.0465,-0.12068 0.0512,-0.18424 0.007,-0.0988 -0.005,-0.19837 -0.0155,-0.29685 -0.0557,-0.50423 -0.18991,-1.0016 -0.29926,-1.49564 -0.27672,-1.00747 -0.5659,-2.00983 -0.81311,-3.02467 -1.24902,-1.96202 -4.01526,2.2872 4.0371,-4.46595 0.12843,-0.10771 0.70883,1.06575 0.73034,1.10832 0.50403,1.04318 1.02059,2.08014 1.53806,3.11676 0.13298,0.20958 0.11433,0.48425 0.23212,0.70005 0.0309,0.0566 0.0819,0.10548 0.14,0.13347 0.21709,0.1046 0.0505,-0.23967 0.0323,-0.22362 -1.38716,1.22306 -2.68068,2.54838 -4.02103,3.82257 0.0363,-0.0577 0.0875,-0.10838 0.10895,-0.1731 0.0491,-0.1483 0.0814,-0.64447 0.0876,-0.75702 0.0339,-0.61432 0.004,-1.22731 -0.0117,-1.84174 -0.0422,-0.74441 -0.0501,-1.68595 -0.38577,-2.37594 1.5694,-1.35982 3.05293,-2.82556 4.70818,-4.07944 0.10895,-0.0825 0.15952,0.22312 0.22236,0.34449 0.377,0.72822 0.39472,1.53883 0.40583,2.33719 -0.28365,1.55453 -0.0116,0.53521 -0.83931,2.36203 -0.19033,0.42011 -0.36418,0.8475 -0.54627,1.27125 0,0 -0.16536,0.14707 -0.16536,0.14707 l 0,0 c -0.2719,-0.0182 -0.54319,-0.0562 -0.81569,-0.0546 -1.26674,0.007 -0.63013,0.28922 -1.45911,-0.27089 -0.30888,-0.41208 -0.55716,-0.82416 -0.8162,-1.26684 -1.23156,-2.10464 -2.71369,1.93968 4.25806,-4.49923 -0.0763,0.0126 -0.17081,-0.0132 -0.22902,0.0378 -0.12008,0.10514 -0.23326,0.65131 -0.24869,0.73269 -0.1165,0.61468 -0.14432,1.24318 -0.0923,1.86619 0.0695,0.91031 0.18517,1.81244 0.31388,2.71558 -1.38373,1.35683 -3.17249,5.39146 -4.35264,3.85429 -0.0944,-0.12299 -0.0918,-0.29914 -0.17033,-0.43284 -0.11593,-0.19743 -0.31793,-0.33615 -0.41407,-0.54802 -0.49454,-1.01221 -0.94956,-2.05254 -1.59935,-2.97792 -0.10547,-0.1322 -0.30061,-0.40993 -0.46485,-0.51899 -0.018,-0.012 -8.9e-4,0.0784 0.0143,0.0632 1.38495,-1.37128 2.74895,-2.76357 4.11601,-4.15269 0.12675,-0.12879 -0.67298,0.54347 -0.27579,0.46673 0.0821,1.06218 0.30477,2.11565 0.58386,3.1421 1.21259,3.35446 1.22478,1.48393 -3.07726,6.05524 -0.0819,-0.0333 -0.1685,-0.0568 -0.24569,-0.0999 -0.45998,-0.25674 -0.57714,-0.9001 -1.0303,-1.17582 -0.55406,-0.76535 -1.06336,-1.56863 -1.68374,-2.28231 0,0 3.97108,-3.76112 3.97108,-3.76112 z" />
    <path
       style="opacity:0.1;fill:#3d4970;fill-opacity:1;stroke:none"
       id="path3722"
       d="m 405.39386,424.51929 c 0.2992,0.92262 0.27509,1.89424 0.31463,2.85153 -0.0289,1.13203 0.0248,2.26351 0.0311,3.39498 -0.009,0.0994 -0.0224,0.19858 -0.0279,0.29829 -0.004,0.0664 -0.0145,0.13469 3.4e-4,0.19953 0.0529,0.23165 0.20178,-0.5984 -0.0712,-0.36077 -1.22852,1.06949 -2.3215,2.28538 -3.48225,3.42808 0.4723,-0.70319 0.71913,-1.54798 1.0002,-2.34221 0.12022,-0.35059 0.24572,-0.69933 0.36724,-1.04947 0.0516,-0.14875 0.13426,-0.29053 0.15311,-0.44684 0.009,-0.0741 -0.0707,-0.13676 -0.0738,-0.21129 -0.006,-0.13409 0.0578,-0.2623 0.0781,-0.39495 1.41297,-1.35087 2.70825,-2.83671 4.23892,-4.05259 0.1401,-0.11128 0.25514,0.25836 0.33809,0.41688 0.18478,0.35314 0.0634,1.49063 0.0206,1.86808 -0.26676,1.33176 -1.04559,2.45212 -1.71142,3.60834 0,0 -0.16605,0.14628 -0.16605,0.14628 l 0,0 c -0.23584,0.0413 -0.47075,0.0885 -0.70753,0.12407 -0.72683,0.10928 -0.96431,0.19168 -1.42176,-0.41058 -0.12586,-0.38777 -0.18466,-0.76316 -0.26054,-1.16227 -0.0109,-0.0575 -0.0885,-0.16843 -0.0302,-0.17288 0.0883,-0.007 0.14691,0.21814 0.21275,0.15896 1.41797,-1.27452 2.71693,-2.67552 4.07539,-4.01328 -0.30634,0.29189 -0.10287,0.0686 -0.39397,0.50854 -0.12608,0.19052 -0.27386,0.36727 -0.38627,0.56617 -0.26835,0.47483 -0.38278,1.03355 -0.59499,1.53177 -0.24754,0.75051 -0.46042,1.51162 -0.68867,2.26791 -1.22845,1.23613 -2.76746,4.78649 -3.91007,3.47062 -0.18623,-0.21448 -0.0724,-0.593 -0.22739,-0.8279 -0.0473,-1.15808 0.10212,-2.31567 0.0622,-3.47477 -0.006,-0.93818 -0.0928,-1.87415 -0.21779,-2.8038 0,0 3.47899,-3.11643 3.47899,-3.11643 z" />
    <path
       style="opacity:0.1;fill:#404d77;fill-opacity:1;stroke:none"
       id="path3724"
       d="m 394.63524,421.27451 c 0.13778,0.95881 0.32209,1.91343 0.53044,2.85957 0.16133,0.48776 0.19584,1.0084 0.33295,1.50107 0.0484,0.17394 0.009,0.15668 0.11381,0.15749 -0.49652,-1.99096 -0.007,-0.22194 -4.21257,3.68464 -0.0516,0.0479 0.12742,-0.0688 0.17085,-0.12424 0.24835,-0.31696 0.30659,-0.81596 0.39331,-1.19066 0.0566,-0.4917 0.22911,-0.98976 0.24365,-1.48701 0.003,-0.0993 -0.0959,-0.43443 -0.0748,-0.45734 1.3953,-1.51896 2.86303,-2.96976 4.29454,-4.45464 0.14337,0.11291 0.31082,0.20063 0.43012,0.33874 0.36521,0.42284 0.39667,1.49368 0.35899,2.00465 -0.019,0.25796 -0.0751,0.51185 -0.11263,0.76777 -0.0808,1.20189 -0.6343,2.01158 -1.22834,3.03317 0,0 -0.16327,0.14937 -0.16327,0.14937 l 0,0 c -0.63374,0.21552 -1.09495,0.54069 -1.75362,0.30889 -0.16035,-0.0564 -0.27023,-0.20631 -0.40535,-0.30947 -0.12624,-0.109 -0.27041,-0.20017 -0.37871,-0.32701 -0.0835,-0.0977 -0.38224,-0.64791 -0.44904,-0.77732 -0.0493,-0.0954 -0.0905,-0.19486 -0.13969,-0.29035 -0.0162,-0.0315 -0.0866,-0.10796 -0.0561,-0.0901 0.0799,0.0469 0.14074,0.12068 0.21112,0.18102 10.05736,-10.51517 4.25328,-5.32194 3.73881,-3.60992 -0.14416,0.47972 -0.13555,1.01102 -0.2412,1.49862 -0.0491,0.38781 -0.10091,0.77497 -0.11896,1.16581 -0.004,0.0808 0.0526,0.18593 -0.005,0.24247 -4.27862,4.18713 -2.75147,5.16503 -4.58042,3.85943 -0.40321,-0.51389 -0.72988,-1.05875 -0.88412,-1.70385 -0.27027,-0.81094 -0.51579,-1.65931 -0.9541,-2.39579 0,0 4.93953,-4.53506 4.93953,-4.53506 z" />
    <path
       style="opacity:0.1;fill:#55679e;fill-opacity:1;stroke:none"
       id="path3726"
       d="m 317.91645,389.38998 c -0.005,0.76896 0.19718,1.52323 0.40495,2.25803 0.0502,0.36458 0.25781,0.69866 0.31354,1.0609 0.0354,0.23015 0.0216,0.50525 0.0267,0.74097 -0.004,-0.004 -0.0541,0.3662 -0.0698,0.35662 -0.0412,-0.0253 -0.0457,-0.15048 -0.0825,-0.11921 -4.11006,3.48655 -4.73905,5.49477 -4.11814,3.58679 0.10887,-0.62303 0.17016,-1.25409 0.21798,-1.88442 0.0495,-0.0483 0.008,-1.01699 0.0132,-1.0224 4.20275,-4.13277 2.83441,-5.29785 4.4768,-3.67927 0.33583,0.61639 0.43843,1.32799 0.49667,2.01879 0.0581,0.62952 -0.10926,1.24611 -0.44763,1.78281 -0.24154,0.38311 -0.55909,0.71606 -0.78785,1.10693 -0.13135,0.22442 -0.19001,0.48411 -0.28501,0.72617 0,0 -0.16424,0.14832 -0.16424,0.14832 l 0,0 c -0.16565,-0.007 -0.33825,-0.0687 -0.49695,-0.0207 -0.79732,0.24113 -1.52734,1.11597 -1.87495,-0.16177 -0.13687,-0.51811 -0.2129,-1.07136 -0.48426,-1.53998 1.3708,1.43854 0.0857,0.1452 4.09468,-3.85058 0.0461,-0.046 -0.12678,0.0489 -0.16864,0.0989 -0.20305,0.24229 -0.16797,0.64024 -0.23987,0.92323 -0.054,0.58505 -0.0645,1.17242 -0.0415,1.75947 0.15137,2.04538 0.0631,0.33774 -4.18672,4.04872 -0.0776,0.0677 -0.0774,-0.15778 -0.14137,-0.17585 -0.17185,-0.0485 -0.042,0.0644 -0.16845,-0.0832 -0.0974,-0.14554 -0.2435,-0.33253 -0.30836,-0.49062 -0.14086,-0.34334 -0.12029,-0.74742 -0.27587,-1.08779 -0.19076,-0.6936 -0.41049,-1.38649 -0.73706,-2.02945 0,0 5.03457,-4.47137 5.03457,-4.47137 z" />
    <path
       style="opacity:0.1;fill:#000000;fill-opacity:1;stroke:none"
       id="path4339"
       d="m 324.71521,565.52984 c 0.46422,0.51312 0.95233,0.99968 1.42769,1.50043 0.28575,0.30779 0.60845,0.56983 0.90785,0.86149 0.30444,0.31032 0.57583,0.65509 0.85498,0.99133 0.2037,0.24056 0.40277,0.48574 0.61049,0.72227 0.2466,0.28859 0.49524,0.57525 0.73357,0.87193 0.23654,0.31641 0.47098,0.635 0.69265,0.96386 0.21808,0.34459 0.39358,0.71597 0.60199,1.06709 0.15435,0.26744 0.35398,0.49858 0.5389,0.74068 0.30635,0.40319 0.52966,0.86493 0.75336,1.32412 0.13475,0.26069 0.2716,0.52037 0.41269,0.77714 0.22358,0.41286 0.39482,0.85413 0.5459,1.30284 0.0879,0.23766 0.13852,0.49256 0.24795,0.72053 0.20862,0.40454 0.34403,0.84526 0.46716,1.28695 0.18135,0.68449 0.24233,1.39414 0.28274,2.10192 0.0238,0.2276 0.11592,0.43256 0.18794,0.64705 0.0558,0.19879 0.14397,0.38143 0.22929,0.56609 0.12048,0.26822 0.25477,0.5287 0.39115,0.78773 0.046,0.0681 0.12364,0.12911 0.17585,0.17507 0.11659,0.0817 0.24429,0.14239 0.36773,0.21096 0.14681,0.0952 0.29412,0.1786 0.45774,0.23126 0.235,0.0866 0.47448,0.1562 0.71488,0.22244 0.21817,0.0506 0.43791,0.0918 0.65762,0.13364 0.32997,0.0618 0.65522,0.14638 0.97788,0.24269 0.20204,0.0859 0.41175,0.11957 0.62443,0.15218 0.29152,0.0347 0.581,0.0859 0.87143,0.12929 0.26166,0.0403 0.52403,0.0743 0.78636,0.10881 0.23157,0.0332 0.46378,0.0562 0.69703,0.069 0.31842,0.0127 0.63716,0.0114 0.95575,0.012 0.43483,-0.008 0.86829,0.0207 1.29966,0.0779 0.39841,0.0747 0.80031,0.1089 1.20371,0.12924 0.6018,0.0121 1.20273,0.0343 1.80266,0.0882 0.44542,0.0488 0.88975,0.1032 1.3369,0.12959 0.62355,0.017 1.24614,0.0541 1.86889,0.0907 0.88091,0.0416 1.75814,0.13486 2.63442,0.23731 0.82579,0.0917 1.65014,0.19752 2.4749,0.29931 0.95017,0.11531 1.90429,0.18673 2.8579,0.25884 1.09714,0.0721 2.19293,0.16344 3.28815,0.2635 1.04826,0.0976 2.09688,0.19356 3.14204,0.32508 0.97786,0.14087 1.94395,0.35579 2.92143,0.49972 1.20885,0.16039 2.41996,0.30138 3.63195,0.4309 2.0936,0.20002 4.18088,0.46108 6.26284,0.77132 2.47227,0.3866 4.93149,0.86349 7.38752,1.3549 2.83515,0.54629 5.66403,1.12811 8.48677,1.74496 2.50989,0.58686 5.0401,1.05323 7.58119,1.44749 2.15619,0.34616 4.32475,0.56856 6.49907,0.72163 2.15834,0.13415 4.32013,0.17434 6.48147,0.1992 2.57842,0.0182 5.15702,-10e-5 7.73533,-0.0285 2.19248,-0.0124 4.38323,-0.0885 6.5716,-0.23065 1.2756,-0.0766 2.54769,-0.20479 3.79171,-0.52664 1.11374,-0.32675 2.18796,-0.78781 3.25736,-1.25248 1.18539,-0.49849 2.35222,-1.0458 3.5195,-1.59151 1.19069,-0.5452 2.38064,-1.09216 3.56691,-1.64856 0.81778,-0.37691 1.58952,-0.85197 2.32173,-1.39506 0.38321,-0.28488 0.70433,-0.64401 0.97356,-1.05166 0.11536,-0.20915 0.16086,-0.44759 0.20408,-0.68334 0.0528,-0.40785 0.0749,-0.81982 0.0992,-1.2306 0.0226,-0.39105 0.003,-0.78011 -0.0424,-1.16799 -0.052,-0.41778 -0.13755,-0.82949 -0.22996,-1.23862 -0.088,-0.42734 -0.28981,-0.79868 -0.5009,-1.1655 -0.35718,-0.6139 -0.86671,-1.07779 -1.38323,-1.52663 -0.89937,-0.76419 -1.89048,-1.37568 -2.90163,-1.94527 -1.16371,-0.63085 -2.35094,-1.20926 -3.55243,-1.75007 -1.18419,-0.52771 -2.39521,-0.97991 -3.60038,-1.44715 -1.20042,-0.47271 -2.40454,-0.93427 -3.59987,-1.42198 -1.23022,-0.50541 -2.4856,-0.9334 -3.73684,-1.37245 -1.62537,-0.56691 -3.27525,-1.04537 -4.9199,-1.54102 -1.79164,-0.54174 -3.57432,-1.11719 -5.35764,-1.68993 -1.77,-0.58169 -3.54861,-1.13192 -5.32271,-1.69862 -1.80009,-0.57015 -3.59785,-1.14711 -5.38602,-1.75984 -1.71318,-0.59441 -3.43465,-1.15988 -5.14661,-1.75848 -1.69398,-0.59437 -3.3918,-1.1758 -5.08658,-1.76749 -1.58964,-0.53839 -3.1662,-1.11949 -4.73448,-1.72648 -1.51437,-0.57201 -3.03492,-1.12407 -4.54207,-1.71822 -1.25809,-0.49439 -2.46396,-1.12305 -3.64013,-1.81094 -0.90283,-0.52373 -1.72646,-1.17827 -2.49939,-1.90185 -0.51107,-0.49785 -0.97203,-1.0498 -1.38037,-1.64786 -0.63038,-0.96491 -0.64745,-1.99251 -0.30018,-3.07605 0.43985,-0.992 1.28538,-1.49985 2.14564,-1.98393 0.86448,-0.51219 1.7592,-0.95876 2.65953,-1.39083 1.16125,-0.51313 2.29009,-1.09898 3.3927,-1.74507 1.07953,-0.6459 2.09797,-1.3987 3.09501,-2.18231 0.93242,-0.71586 1.76071,-1.56228 2.51312,-2.49029 0.70188,-0.86152 1.22405,-1.84702 1.6312,-2.90181 0.49146,-1.30726 0.69065,-2.70165 0.82498,-4.09638 0.12287,-1.30206 0.0495,-2.6034 -0.10977,-3.89602 -0.11036,-0.83595 -0.26596,-1.66278 -0.50633,-2.46631 -0.17723,-0.56638 -0.40108,-1.11235 -0.64038,-1.65053 -0.21039,-0.5034 -0.4429,-0.99448 -0.72821,-1.45299 -0.40354,-0.58072 -0.8758,-1.10131 -1.33915,-1.62546 -0.79298,-0.88798 -1.65359,-1.69972 -2.52256,-2.49823 -1.1433,-1.0368 -2.30766,-2.0458 -3.46059,-3.06991 -1.23968,-1.08437 -2.41192,-2.25147 -3.52159,-3.48909 -0.91512,-1.04667 -1.79989,-2.12355 -2.71063,-3.17469 -0.78769,-0.90879 -1.56009,-1.8337 -2.28349,-2.80344 -0.60671,-0.82257 -1.10388,-1.72903 -1.56234,-2.65475 -0.54875,-1.12056 -0.67531,-2.31613 -0.54537,-3.55851 0.18356,-1.0791 0.66813,-2.04103 1.19363,-2.96376 0.50475,-0.88961 1.10723,-1.6995 1.76349,-2.46145 0.6583,-0.73198 1.36949,-1.40441 2.05505,-2.10573 0.7175,-0.80131 1.51473,-1.5049 2.33424,-2.17829 0.89641,-0.72694 1.85321,-1.35693 2.82328,-1.95988 0.92738,-0.56335 1.84773,-1.13985 2.75137,-1.74686 0.90038,-0.60013 1.79367,-1.21188 2.67447,-1.84515 0.64672,-0.49301 1.3545,-0.87639 2.03465,-1.30926 0.50954,-0.34985 1.01017,-0.71471 1.5107,-1.07958 0.52905,-0.37502 1.05148,-0.76052 1.56664,-1.15757 0.36541,-0.27662 0.70752,-0.58594 1.05752,-0.88423 0.28575,-0.24049 0.59786,-0.43993 0.88903,-0.67188 0.83042,-0.65147 1.49063,-0.57838 2.43224,-0.30529 2.67019,1.19458 1.1107,5.28535 -1.55949,4.09077 l 0,0 c 0.5335,0.11288 1.06843,0.16498 1.53534,-0.21011 -0.2547,0.20043 -0.51827,0.38611 -0.77706,0.58015 -0.40137,0.33862 -0.79123,0.69364 -1.21008,1.00763 -0.54438,0.41909 -1.09558,0.8274 -1.65453,1.22341 -0.57192,0.41627 -1.14287,0.8346 -1.72863,1.22774 -0.61476,0.3878 -1.25183,0.73532 -1.83721,1.17593 -0.91648,0.65881 -1.8457,1.29571 -2.78246,1.92016 -0.94362,0.63239 -1.90251,1.23686 -2.87075,1.82395 -0.81949,0.5083 -1.62947,1.03635 -2.38794,1.64791 -0.70297,0.57608 -1.38547,1.17798 -1.99684,1.86891 -0.62617,0.64008 -1.27314,1.25652 -1.88126,1.91695 -0.47747,0.54573 -0.90949,1.13065 -1.27419,1.77225 -0.23496,0.40196 -0.45765,0.81556 -0.61811,1.25979 -0.12095,0.26507 0.0138,0.58277 0.10466,0.83411 0.33642,0.68359 0.69682,1.35674 1.14138,1.96585 0.6561,0.88551 1.36636,1.72176 2.08126,2.5516 0.89551,1.03393 1.76703,2.09159 2.66506,3.12292 0.99904,1.11926 2.06058,2.16792 3.17856,3.14711 1.17079,1.04009 2.3535,2.06447 3.51397,3.11817 0.97589,0.89801 1.94084,1.81261 2.83021,2.8122 0.63313,0.71703 1.27475,1.434 1.79928,2.25078 0.37853,0.63009 0.71696,1.28505 0.99962,1.97243 0.32011,0.72427 0.61739,1.46037 0.85036,2.22366 0.30629,1.05506 0.52633,2.13392 0.66376,3.23054 0.19745,1.64104 0.27994,3.29435 0.12149,4.9457 -0.18488,1.82991 -0.47055,3.65371 -1.12997,5.36292 -0.59319,1.48391 -1.33177,2.88259 -2.3292,4.09703 -0.95644,1.16387 -1.99799,2.23735 -3.17471,3.14042 -1.1434,0.89705 -2.31309,1.75618 -3.55186,2.49335 -1.19726,0.69901 -2.42008,1.34031 -3.67984,1.8976 -0.82379,0.39469 -1.64231,0.80273 -2.43239,1.2727 -0.57749,0.32378 -0.61441,0.4906 -0.29262,-0.14862 0.10436,-0.43336 0.16962,-0.95787 -0.1309,-1.32557 0.21563,0.33584 0.48452,0.62586 0.75473,0.90979 0.54553,0.51533 1.12565,0.98229 1.76638,1.35245 0.99916,0.58713 2.02391,1.12338 3.09353,1.54472 1.49944,0.59153 3.01296,1.13893 4.51931,1.70932 1.52793,0.59158 3.06408,1.1574 4.61293,1.68175 1.69542,0.59194 3.39389,1.17353 5.08852,1.76816 1.70428,0.59616 3.41828,1.15843 5.12373,1.75056 1.76263,0.60417 3.53491,1.17227 5.30929,1.73444 1.776,0.56736 3.55654,1.1181 5.32844,1.70046 1.76128,0.56569 3.52189,1.13413 5.29135,1.6693 1.69964,0.51222 3.40444,1.00757 5.08387,1.59446 1.31227,0.46047 2.62841,0.91075 3.91847,1.44134 1.17393,0.47943 2.35701,0.93172 3.5359,1.39654 1.27003,0.49239 2.5458,0.9701 3.79311,1.52788 1.30963,0.59094 2.60463,1.22069 3.87203,1.91199 1.25222,0.70901 2.47606,1.47794 3.58591,2.43199 0.87197,0.77172 1.70135,1.60152 2.29385,2.65244 0.42642,0.762 0.80118,1.55553 0.98667,2.43062 0.1298,0.58001 0.24736,1.16413 0.31664,1.75676 0.0713,0.65795 0.10266,1.31914 0.0632,1.98134 -0.0376,0.6282 -0.0726,1.25905 -0.1824,1.87836 -0.17511,0.85162 -0.44025,1.67419 -0.91712,2.38841 -0.55387,0.7956 -1.19129,1.51278 -1.95714,2.07406 -0.94763,0.69452 -1.94089,1.31113 -2.99567,1.79663 -1.18775,0.5571 -2.37911,1.10497 -3.57137,1.65065 -1.20006,0.56104 -2.3999,1.12315 -3.61843,1.63611 -1.26212,0.54758 -2.53193,1.08593 -3.85055,1.45478 -1.47121,0.36453 -2.96653,0.55508 -4.47416,0.63408 -2.25589,0.14619 -4.51422,0.22542 -6.77431,0.23835 -2.60666,0.0287 -5.21361,0.0472 -7.82038,0.0285 -2.23546,-0.0258 -4.47139,-0.0682 -6.70369,-0.20832 -2.2793,-0.16136 -4.55272,-0.39452 -6.81311,-0.75705 -2.61739,-0.4068 -5.2239,-0.88628 -7.80939,-1.4901 -2.80083,-0.61214 -5.60783,-1.18914 -8.421,-1.73119 -2.39463,-0.4793 -4.79234,-0.94465 -7.20269,-1.32264 -2.03006,-0.30319 -4.06549,-0.5563 -6.10697,-0.75137 -1.26283,-0.13522 -2.52484,-0.28161 -3.78425,-0.45031 -0.95077,-0.14169 -1.892,-0.34017 -2.84164,-0.48877 -1.00152,-0.12753 -2.00693,-0.21587 -3.01143,-0.31086 -1.07564,-0.0983 -2.15183,-0.1879 -3.22936,-0.25859 -1.01302,-0.0767 -2.02651,-0.1534 -3.03581,-0.27653 -0.81674,-0.10081 -1.63305,-0.20567 -2.45081,-0.29642 -0.80438,-0.094 -1.60947,-0.18127 -2.41819,-0.2183 -0.6257,-0.037 -1.25122,-0.0728 -1.87768,-0.0913 -0.48487,-0.0305 -0.96759,-0.0813 -1.45034,-0.13827 -0.55087,-0.0519 -1.10313,-0.0611 -1.65563,-0.0776 -0.50804,-0.0274 -1.01545,-0.0677 -1.51767,-0.15886 -0.26388,-0.0382 -0.52953,-0.048 -0.79576,-0.0432 -0.38803,-8.8e-4 -0.77627,2.9e-4 -1.164,-0.0182 -0.32693,-0.0192 -0.65285,-0.0498 -0.97757,-0.0956 -0.28494,-0.0382 -0.57008,-0.0744 -0.85433,-0.11845 -0.29485,-0.0449 -0.58903,-0.0951 -0.88496,-0.13136 -0.38338,-0.0597 -0.76628,-0.131 -1.1339,-0.2673 -0.19739,-0.0592 -0.39537,-0.1133 -0.59767,-0.14987 -0.32099,-0.0611 -0.64215,-0.12217 -0.95937,-0.2039 -0.33779,-0.0934 -0.67386,-0.19375 -1.00426,-0.31476 -0.3557,-0.13274 -0.70559,-0.28374 -1.02989,-0.49289 -0.34599,-0.19437 -0.69495,-0.38553 -1.00217,-0.64926 -0.47978,-0.4185 -0.90914,-0.89877 -1.22057,-1.47993 -0.17276,-0.32851 -0.34176,-0.65965 -0.49552,-0.99918 -0.15536,-0.33655 -0.30447,-0.67637 -0.41508,-1.03387 -0.20598,-0.61376 -0.39675,-1.23549 -0.42659,-1.89446 -0.0198,-0.37318 -0.0398,-0.74889 -0.1227,-1.11319 -0.059,-0.22956 -0.12928,-0.44807 -0.24454,-0.65367 -0.15448,-0.36316 -0.28336,-0.73605 -0.39884,-1.11578 -0.0581,-0.18508 -0.12797,-0.36579 -0.21392,-0.53786 -0.17498,-0.32066 -0.3472,-0.64334 -0.51234,-0.97005 -0.0945,-0.19442 -0.18094,-0.39451 -0.29484,-0.57693 -0.28411,-0.37863 -0.58809,-0.74188 -0.82191,-1.16173 -0.16856,-0.28508 -0.32956,-0.57442 -0.47924,-0.87154 -0.14566,-0.22897 -0.31799,-0.43713 -0.47145,-0.65994 -0.19336,-0.24885 -0.40715,-0.47867 -0.60759,-0.72075 -0.23023,-0.26481 -0.45467,-0.53534 -0.6805,-0.80455 -0.18923,-0.22822 -0.37408,-0.46086 -0.57107,-0.68135 -0.32194,-0.33337 -0.7012,-0.60002 -1.00276,-0.95842 -0.488,-0.51519 -0.99055,-1.01425 -1.46692,-1.54235 -2.04278,-2.21295 0.84615,-5.34252 2.88894,-3.12958 z" />
    <path
       sodipodi:type="arc"
       style="opacity:0.09899998;fill:url(#linearGradient4080);fill-opacity:1;stroke:#000000;stroke-width:2.38196564;stroke-linecap:butt;stroke-linejoin:round;stroke-miterlimit:4;stroke-opacity:1;stroke-dasharray:none;stroke-dashoffset:2.4"
       id="path3619"
       sodipodi:cx="535"
       sodipodi:cy="296.59448"
       sodipodi:rx="30"
       sodipodi:ry="22.5"
       d="m 565,296.59448 c 0,12.42641 -13.43146,22.5 -30,22.5 -16.56854,0 -30,-10.07359 -30,-22.5 0,-12.4264 13.43146,-22.5 30,-22.5 16.56854,0 30,10.0736 30,22.5 z"
       transform="matrix(0.3716162,0.64365815,-0.64365815,0.3716162,394.13604,24.803701)" />
    <path
       sodipodi:type="arc"
       style="opacity:0.09899998;fill:url(#linearGradient4082);fill-opacity:1;stroke:#000000;stroke-width:0.59549141;stroke-opacity:1"
       id="path3621"
       sodipodi:cx="535"
       sodipodi:cy="299.09448"
       sodipodi:rx="20"
       sodipodi:ry="15"
       d="m 555,299.09448 c 0,8.28427 -8.95431,15 -20,15 -11.04569,0 -20,-6.71573 -20,-15 0,-8.28427 8.95431,-15 20,-15 11.04569,0 20,6.71573 20,15 z"
       transform="matrix(0.3716162,0.64365815,-0.64365815,0.3716162,394.13604,24.803701)" />
    <path
       style="opacity:0.09899998;fill:#e1e1e1;fill-opacity:1;stroke:#000000;stroke-width:0.88517696;stroke-linecap:butt;stroke-linejoin:round;stroke-miterlimit:4;stroke-opacity:1;stroke-dashoffset:2.4"
       d="m 401.39182,487.91037 c -10.11272,6.26769 -11.87913,3.20818 -13.82889,-0.1689 -1.94976,-3.37708 -3.71616,-6.43658 6.76817,-12.06061 2.53205,-1.35823 6.08621,0.13636 8.03596,3.51343 1.94977,3.37709 1.51313,7.27941 -0.97524,8.71608 z"
       id="path3641"
       sodipodi:nodetypes="csssc" />
    <path
       transform="matrix(0.17651769,0.30573762,-0.3003738,0.1734209,386.82807,270.07293)"
       sodipodi:type="arc"
       style="opacity:0.09899998;fill:#f8f8f8;fill-opacity:1;stroke:#000000;stroke-width:2.52962017;stroke-linecap:butt;stroke-linejoin:round;stroke-miterlimit:4;stroke-opacity:1;stroke-dasharray:none;stroke-dashoffset:2.4"
       id="path3643"
       sodipodi:cx="535"
       sodipodi:cy="299.09448"
       sodipodi:rx="20"
       sodipodi:ry="15"
       d="m 555,299.09448 c 0,8.28427 -8.95431,15 -20,15 -11.04569,0 -20,-6.71573 -20,-15 0,-8.28427 8.95431,-15 20,-15 11.04569,0 20,6.71573 20,15 z" />
    <rect
       style="opacity:0.1;fill:#000000;fill-opacity:1;stroke:#000000;stroke-width:0.44446921;stroke-opacity:1"
       id="rect4031"
       width="13.575191"
       height="8.4390039"
       x="-52.075481"
       y="644.71783"
       rx="2.3090463"
       ry="2.3090475"
       transform="matrix(0.75302635,-0.65799036,0.55477795,0.83199845,0,0)" />
    <g
       style="opacity:0.1"
       id="g4017"
       transform="matrix(0.09764458,0.19164645,-0.16912537,0.11064713,318.48762,507.28371)">
      <path
         style="fill:url(#linearGradient4486);fill-opacity:1;stroke:none"
         d="m 240,194.09448 70,0 0,20 -70,0 0,-20 z"
         id="path4019" />
      <rect
         style="fill:#34343b;fill-opacity:1;stroke:none"
         id="rect4021"
         width="35"
         height="30"
         x="305"
         y="189.09448"
         ry="10.434784"
         rx="11.824301" />
    </g>
    <g
       style="opacity:0.1"
       transform="matrix(-0.09764458,0.19164645,-0.16912537,-0.11064713,300.68313,551.51736)"
       id="g4007">
      <path
         id="path4009"
         d="m 240,194.09448 70,0 0,20 -70,0 0,-20 z"
         style="fill:url(#linearGradient4488);fill-opacity:1;stroke:none" />
      <rect
         rx="11.824301"
         ry="10.434784"
         y="189.09448"
         x="305"
         height="30"
         width="35"
         id="rect4011"
         style="fill:#34343b;fill-opacity:1;stroke:none" />
    </g>
    <path
       id="path3997"
       d="m 277.81658,580.52451 0,7.24059 -3.90578,0 0,-7.24059 3.90578,0 z"
       style="opacity:0.1;fill:url(#linearGradient2905);fill-opacity:1;stroke:none" />
    <rect
       rx="2.3091578"
       ry="2.3091578"
       y="-278.79303"
       x="586.65863"
       height="5.8586745"
       width="7.7452989"
       id="rect3999"
       style="opacity:0.1;fill:#383838;fill-opacity:1;stroke:none"
       transform="matrix(0,1,-1,0,0,0)" />
    <path
       style="opacity:0.1;fill:url(#radialGradient3757);fill-opacity:1;stroke:#000000;stroke-width:0.88517702;stroke-miterlimit:4;stroke-opacity:1;stroke-dasharray:none"
       d="m 252.28841,457.33457 c 14.93482,-6.12718 32.71574,-6.12718 47.65056,0 15.29766,6.27604 30.01233,19.03708 37.49552,35.40708 6.00741,13.14162 6.38591,30.50919 3.12462,45.14403 -2.35188,10.55395 -7.86474,21.02195 -15.62313,27.44049 -13.72951,11.35845 -32.23915,15.08958 -49.23834,15.048 -16.73155,-0.0409 -34.91421,-3.83535 -48.40624,-15.048 -7.74615,-6.4375 -13.26426,-16.88854 -15.62313,-27.44049 -3.33472,-14.91723 -2.99295,-31.73582 3.12462,-45.14403 7.47193,-16.3766 22.19786,-29.13104 37.49552,-35.40708 z"
       id="rect3728"
       sodipodi:nodetypes="caaaaaaaaa" />
    <path
       sodipodi:nodetypes="cccc"
       id="path3967"
       d="m 195.86387,548.73394 c 0,0 -30,-90 20,-180 110,-10 230,0 230,0 20,90 10,180 10,180 -130,20 -260,-0.34782 -260,0 z"
       style="opacity:0.1;fill:#ffffff;fill-opacity:1;stroke:none;filter:url(#filter3977)"
       transform="matrix(0.39057832,0,0,0.44258851,147.08073,311.61941)" />
    <path
       style="opacity:0.08504675;fill:#000000;fill-opacity:1;stroke:#000000;stroke-width:1px;stroke-linecap:butt;stroke-linejoin:miter;stroke-opacity:1;filter:url(#filter4500)"
       d="m 234.92072,542.2122 c 0,0 -27.51807,-77.91304 16.60625,-167.91304 97.0735,-10 194.27621,1.82608 194.27621,1.82608 45.91059,57.04348 20.56399,160.6087 20.56399,160.6087 -116.02757,36.26087 -231.44645,5.13044 -231.44645,5.47826 z"
       id="path3731"
       sodipodi:nodetypes="ccccc"
       inkscape:export-xdpi="16.73"
       inkscape:export-ydpi="16.73"
       transform="matrix(0.44258851,0,0,0.44258851,120.99319,311.61941)" />
    <g
       style="opacity:1"
       id="g3887"
       transform="matrix(0.39057832,0,0,0.44258851,171.06831,325.60989)">
      <path
         d="m 138.01872,453.82367 c 3.93137,0.11669 7.86296,0.23138 11.79442,0.34909 8.97805,0.30064 17.95557,0.54617 26.93839,0.62909 3.93764,0.0189 7.87424,-0.0695 11.8118,-0.0602 1.67275,0.004 3.26756,-0.0304 4.89896,0.3349 1.23796,0.19001 0.25859,1.26694 -0.12098,1.91529 0,0 -0.21491,0.17948 -0.21491,0.17948 l 0,0 c -0.87773,0.34374 -1.40878,1.35121 -2.50858,1.24511 -5.67257,1.03465 -11.53818,0.15603 -17.25854,0.34904 -9.09894,-0.10051 -18.19811,-0.17567 -27.29752,-0.21634 -4.02288,-0.0246 -8.04879,-0.12622 -12.07049,-0.01 0,0 4.02745,-4.71554 4.02745,-4.71554 z"
         id="path3753"
         style="fill:#ffffff;fill-opacity:1;stroke:none" />
      <path
         d="m 196.25546,395.1538 c -0.87467,3.40458 -0.98244,6.94206 -1.17551,10.43387 -0.19546,6.26014 -0.7385,12.49802 -1.32562,18.73111 -0.61296,6.45199 -1.06158,12.91759 -1.78197,19.359 -0.77823,4.53204 0.0197,1.00309 -1.61317,5.62953 -1.20883,3.42499 0.23327,0.51335 -1.59806,3.79728 0,0 -0.21413,0.18041 -0.21413,0.18041 l 0,0 c -0.29778,-0.0788 -0.69859,0.002 -0.89333,-0.23629 -0.26518,-0.32496 -0.13326,-0.83662 -0.29721,-1.22267 -1.17266,-2.7612 -0.7596,0.45472 -0.78462,-3.61756 0.41007,-6.40996 1.0027,-12.80624 1.59103,-19.20187 0.55171,-6.18882 1.11679,-12.38025 1.22449,-18.597 0.089,-3.42202 0.16499,-6.86156 0.71624,-10.24734 0,0 6.15186,-5.00847 6.15186,-5.00847 z"
         id="path3755"
         style="fill:#ffffff;fill-opacity:1;stroke:none" />
      <path
         d="m 192.78334,394.46785 c 4.73638,0.20068 9.47462,0.2198 14.21429,0.17105 8.80844,-0.22198 17.60726,-0.706 26.41933,-0.47833 4.03988,1.18865 2.03174,0.72265 6.01816,1.42468 0,0 -0.18145,0.21325 -0.18145,0.21325 l 0,0 c -5.58689,0.91957 -2.63121,0.31089 -8.84547,1.92781 -9.29432,1.2472 -18.64125,1.98156 -28.01316,2.32888 -4.86097,0.19098 -9.7199,0.26097 -14.58425,0.25382 0,0 4.97255,-5.84116 4.97255,-5.84116 z"
         id="path3757"
         style="fill:#ffffff;fill-opacity:1;stroke:none" />
      <path
         d="m 239.46017,391.5685 c -1.25245,6.29432 -1.45789,12.75778 -1.93558,19.14537 -0.8316,10.72017 -1.65172,21.4398 -2.30443,32.17256 -0.70375,4.48825 0.13399,9.28231 -1.08217,13.70682 -0.2704,0.98373 -0.73734,1.90255 -1.10601,2.85382 0,0 -0.21158,0.1834 -0.21158,0.1834 l 0,0 c -0.45624,-0.24242 -1.05932,-0.3135 -1.36871,-0.72725 -1.5516,-2.07493 -0.51453,-9.72419 -0.72304,-12.22101 0.45856,-10.54774 1.11595,-21.08511 1.65313,-31.62892 0.27844,-6.23376 0.41431,-12.5001 1.19571,-18.69494 0,0 5.88268,-4.78985 5.88268,-4.78985 z"
         id="path3759"
         style="fill:#ffffff;fill-opacity:1;stroke:none" />
      <path
         d="m 237.13809,448.85608 c 4.04087,0.007 8.07042,0.36369 12.10173,0.60273 6.21379,0.42894 12.44291,0.3613 18.66645,0.31749 4.97587,0.0419 1.036,-0.0359 5.65989,0.16654 1.43501,0.0628 2.73762,-0.0922 4.07829,0.51741 0.38414,0.17466 0.66167,0.52391 0.99251,0.78586 0,0 -0.17878,0.21549 -0.17878,0.21549 l 0,0 c -0.91887,0.44191 -1.81139,0.9434 -2.7566,1.32572 -3.89943,1.57727 -8.19253,1.89502 -12.3297,2.33049 -6.32705,0.32965 -12.66499,0.35491 -18.99129,-0.0419 -3.93604,-0.26483 -7.86852,-0.56922 -11.79785,-0.91886 0,0 4.55535,-5.30102 4.55535,-5.30102 z"
         id="path3761"
         style="fill:#ffffff;fill-opacity:1;stroke:none" />
      <path
         d="m 283.11839,388.82978 c -0.7987,5.27019 -0.9369,10.61414 -1.12545,15.93259 -0.26698,9.92226 -0.36587,19.84694 -0.79381,29.76438 -0.24892,4.03472 -0.22767,8.09808 -1.11758,12.06471 -1.56874,6.99247 -0.58216,0.42165 -1.28494,5.70973 0,0 -0.21217,0.18272 -0.21217,0.18272 l 0,0 c -0.64694,-2.27102 -0.179,-1.1411 -1.47575,-3.35907 -1.16143,-3.30822 -0.47953,-6.9852 -0.85302,-10.38614 -0.20404,-9.65501 -0.1923,-19.31161 -0.1533,-28.96833 0.0501,-5.2168 -1.7e-4,-10.46268 0.59201,-15.65271 0,0 6.42401,-5.28788 6.42401,-5.28788 z"
         id="path3763"
         style="fill:#ffffff;fill-opacity:1;stroke:none" />
      <path
         d="m 278.4429,389.1185 c 3.19095,1.90189 6.82188,2.72883 10.41429,3.49135 9.02913,1.62086 18.19122,2.35281 27.33478,2.96768 11.7749,0.92615 23.59011,0.82944 35.38197,1.37376 5.90579,0.55758 3.08817,0.17096 8.46029,1.10434 0,0 -0.18266,0.21221 -0.18266,0.21221 l 0,0 c -6.47537,0.46617 -3.14196,0.23147 -10.00039,0.7022 -12.34604,0.6206 -24.70694,0.64767 -37.06647,0.55855 -9.46345,-0.27304 -18.95901,-0.52009 -28.33395,-1.95727 -3.74743,-0.6763 -7.5454,-1.38425 -10.8687,-3.35128 0,0 4.86084,-5.10154 4.86084,-5.10154 z"
         id="path3765"
         style="fill:#ffffff;fill-opacity:1;stroke:none" />
      <path
         d="m 357.31264,395.28158 c -0.10513,2.33553 -0.006,4.6863 0.10453,7.02199 0.15534,2.17918 0.5583,4.31138 0.70676,6.48753 0.19244,1.73532 0.13072,3.47272 0.0206,5.20977 -0.3076,3.79502 -0.34715,7.60366 -0.40899,11.40843 -0.0322,6.73732 -0.15204,13.47295 -0.55372,20.1989 -0.33561,4.86898 -1.03422,9.70073 -1.3974,14.56644 -0.36066,0.95218 0.007,2.13806 -0.32347,3.09236 -0.2029,0.58566 -0.9629,1.64453 -1.2812,2.12089 0,0 -0.19183,0.20398 -0.19183,0.20398 l 0,0 c -2.11887,1.36624 -2.82565,1.73749 -3.40912,-0.98701 -0.20753,-4.72411 0.53009,-9.41751 0.82366,-14.12273 0.43616,-6.67031 0.60186,-13.34571 0.42894,-20.03019 -0.0624,-3.73436 -0.0944,-7.47204 0.0979,-11.20358 0.0895,-1.78032 0.21308,-3.55852 0.23511,-5.34156 0.0392,-2.54835 0.3325,-5.07078 0.56414,-7.60953 0.17191,-2.52349 0.35214,-5.04723 0.50516,-7.57087 0,0 4.07899,-3.44482 4.07899,-3.44482 z"
         id="path3783"
         style="fill:#ffffff;fill-opacity:1;stroke:none" />
      <path
         d="m 357.03899,448.14413 c 3.0025,0.63862 6.05372,0.76009 9.11106,0.69098 6.58093,-0.37543 13.10618,-1.38348 19.62672,-2.30824 2.06124,0.0705 6.92846,-1.93832 8.67667,-0.2106 0.44848,0.44323 0.36347,1.20757 0.54521,1.81136 0,0 -0.17949,0.2149 -0.17949,0.2149 l 0,0 c -1.32495,0.77074 -2.59595,1.64277 -3.97485,2.31222 -3.3559,1.6293 -6.85942,1.92382 -10.49738,2.41534 -6.63823,0.95427 -13.27168,2.043 -19.96274,2.54862 -3.15216,0.0788 -6.27358,-0.12625 -9.3924,-0.60404 0,0 6.0472,-6.87054 6.0472,-6.87054 z"
         id="path3785"
         style="fill:#ffffff;fill-opacity:1;stroke:none" />
      <path
         style="fill:#ffffff;fill-opacity:1;stroke:none;filter:url(#filter3841)"
         id="path3787"
         d="m 138.01872,453.82367 c 3.93137,0.11669 7.86296,0.23138 11.79442,0.34909 8.97805,0.30064 17.95557,0.54617 26.93839,0.62909 3.93764,0.0189 7.87424,-0.0695 11.8118,-0.0602 1.67275,0.004 3.26756,-0.0304 4.89896,0.3349 1.23796,0.19001 0.25859,1.26694 -0.12098,1.91529 0,0 -0.21491,0.17948 -0.21491,0.17948 l 0,0 c -0.87773,0.34374 -1.40878,1.35121 -2.50858,1.24511 -5.67257,1.03465 -11.53818,0.15603 -17.25854,0.34904 -9.09894,-0.10051 -18.19811,-0.17567 -27.29752,-0.21634 -4.02288,-0.0246 -8.04879,-0.12622 -12.07049,-0.01 0,0 4.02745,-4.71554 4.02745,-4.71554 z" />
      <path
         style="fill:#ffffff;fill-opacity:1;stroke:none;filter:url(#filter3845)"
         id="path3789"
         d="m 196.25546,395.1538 c -0.87467,3.40458 -0.98244,6.94206 -1.17551,10.43387 -0.19546,6.26014 -0.7385,12.49802 -1.32562,18.73111 -0.61296,6.45199 -1.06158,12.91759 -1.78197,19.359 -0.77823,4.53204 0.0197,1.00309 -1.61317,5.62953 -1.20883,3.42499 0.23327,0.51335 -1.59806,3.79728 0,0 -0.21413,0.18041 -0.21413,0.18041 l 0,0 c -0.29778,-0.0788 -0.69859,0.002 -0.89333,-0.23629 -0.26518,-0.32496 -0.13326,-0.83662 -0.29721,-1.22267 -1.17266,-2.7612 -0.7596,0.45472 -0.78462,-3.61756 0.41007,-6.40996 1.0027,-12.80624 1.59103,-19.20187 0.55171,-6.18882 1.11679,-12.38025 1.22449,-18.597 0.089,-3.42202 0.16499,-6.86156 0.71624,-10.24734 0,0 6.15186,-5.00847 6.15186,-5.00847 z" />
      <path
         style="fill:#ffffff;fill-opacity:1;stroke:none;filter:url(#filter3849)"
         id="path3791"
         d="m 192.78334,394.46785 c 4.73638,0.20068 9.47462,0.2198 14.21429,0.17105 8.80844,-0.22198 17.60726,-0.706 26.41933,-0.47833 4.03988,1.18865 2.03174,0.72265 6.01816,1.42468 0,0 -0.18145,0.21325 -0.18145,0.21325 l 0,0 c -5.58689,0.91957 -2.63121,0.31089 -8.84547,1.92781 -9.29432,1.2472 -18.64125,1.98156 -28.01316,2.32888 -4.86097,0.19098 -9.7199,0.26097 -14.58425,0.25382 0,0 4.97255,-5.84116 4.97255,-5.84116 z" />
      <path
         style="fill:#ffffff;fill-opacity:1;stroke:none;filter:url(#filter3853)"
         id="path3793"
         d="m 239.46017,391.5685 c -1.25245,6.29432 -1.45789,12.75778 -1.93558,19.14537 -0.8316,10.72017 -1.65172,21.4398 -2.30443,32.17256 -0.70375,4.48825 0.13399,9.28231 -1.08217,13.70682 -0.2704,0.98373 -0.73734,1.90255 -1.10601,2.85382 0,0 -0.21158,0.1834 -0.21158,0.1834 l 0,0 c -0.45624,-0.24242 -1.05932,-0.3135 -1.36871,-0.72725 -1.5516,-2.07493 -0.51453,-9.72419 -0.72304,-12.22101 0.45856,-10.54774 1.11595,-21.08511 1.65313,-31.62892 0.27844,-6.23376 0.41431,-12.5001 1.19571,-18.69494 0,0 5.88268,-4.78985 5.88268,-4.78985 z" />
      <path
         style="fill:#ffffff;fill-opacity:1;stroke:none;filter:url(#filter3857)"
         id="path3795"
         d="m 237.13809,448.85608 c 4.04087,0.007 8.07042,0.36369 12.10173,0.60273 6.21379,0.42894 12.44291,0.3613 18.66645,0.31749 4.97587,0.0419 1.036,-0.0359 5.65989,0.16654 1.43501,0.0628 2.73762,-0.0922 4.07829,0.51741 0.38414,0.17466 0.66167,0.52391 0.99251,0.78586 0,0 -0.17878,0.21549 -0.17878,0.21549 l 0,0 c -0.91887,0.44191 -1.81139,0.9434 -2.7566,1.32572 -3.89943,1.57727 -8.19253,1.89502 -12.3297,2.33049 -6.32705,0.32965 -12.66499,0.35491 -18.99129,-0.0419 -3.93604,-0.26483 -7.86852,-0.56922 -11.79785,-0.91886 0,0 4.55535,-5.30102 4.55535,-5.30102 z" />
      <path
         style="fill:#ffffff;fill-opacity:1;stroke:none;filter:url(#filter3861)"
         id="path3797"
         d="m 283.11839,388.82978 c -0.7987,5.27019 -0.9369,10.61414 -1.12545,15.93259 -0.26698,9.92226 -0.36587,19.84694 -0.79381,29.76438 -0.24892,4.03472 -0.22767,8.09808 -1.11758,12.06471 -1.56874,6.99247 -0.58216,0.42165 -1.28494,5.70973 0,0 -0.21217,0.18272 -0.21217,0.18272 l 0,0 c -0.64694,-2.27102 -0.179,-1.1411 -1.47575,-3.35907 -1.16143,-3.30822 -0.47953,-6.9852 -0.85302,-10.38614 -0.20404,-9.65501 -0.1923,-19.31161 -0.1533,-28.96833 0.0501,-5.2168 -1.7e-4,-10.46268 0.59201,-15.65271 0,0 6.42401,-5.28788 6.42401,-5.28788 z" />
      <path
         style="fill:#ffffff;fill-opacity:1;stroke:none;filter:url(#filter3865)"
         id="path3799"
         d="m 278.4429,389.1185 c 3.19095,1.90189 6.82188,2.72883 10.41429,3.49135 9.02913,1.62086 18.19122,2.35281 27.33478,2.96768 11.7749,0.92615 23.59011,0.82944 35.38197,1.37376 5.90579,0.55758 3.08817,0.17096 8.46029,1.10434 0,0 -0.18266,0.21221 -0.18266,0.21221 l 0,0 c -6.47537,0.46617 -3.14196,0.23147 -10.00039,0.7022 -12.34604,0.6206 -24.70694,0.64767 -37.06647,0.55855 -9.46345,-0.27304 -18.95901,-0.52009 -28.33395,-1.95727 -3.74743,-0.6763 -7.5454,-1.38425 -10.8687,-3.35128 0,0 4.86084,-5.10154 4.86084,-5.10154 z" />
      <path
         style="fill:#ffffff;fill-opacity:1;stroke:none;filter:url(#filter3869)"
         id="path3801"
         d="m 357.31264,395.28158 c -0.10513,2.33553 -0.006,4.6863 0.10453,7.02199 0.15534,2.17918 0.5583,4.31138 0.70676,6.48753 0.19244,1.73532 0.13072,3.47272 0.0206,5.20977 -0.3076,3.79502 -0.34715,7.60366 -0.40899,11.40843 -0.0322,6.73732 -0.15204,13.47295 -0.55372,20.1989 -0.33561,4.86898 -1.03422,9.70073 -1.3974,14.56644 -0.36066,0.95218 0.007,2.13806 -0.32347,3.09236 -0.2029,0.58566 -0.9629,1.64453 -1.2812,2.12089 0,0 -0.19183,0.20398 -0.19183,0.20398 l 0,0 c -2.11887,1.36624 -2.82565,1.73749 -3.40912,-0.98701 -0.20753,-4.72411 0.53009,-9.41751 0.82366,-14.12273 0.43616,-6.67031 0.60186,-13.34571 0.42894,-20.03019 -0.0624,-3.73436 -0.0944,-7.47204 0.0979,-11.20358 0.0895,-1.78032 0.21308,-3.55852 0.23511,-5.34156 0.0392,-2.54835 0.3325,-5.07078 0.56414,-7.60953 0.17191,-2.52349 0.35214,-5.04723 0.50516,-7.57087 0,0 4.07899,-3.44482 4.07899,-3.44482 z" />
      <path
         style="fill:#ffffff;fill-opacity:1;stroke:none;filter:url(#filter3873)"
         id="path3803"
         d="m 357.03899,448.14413 c 3.0025,0.63862 6.05372,0.76009 9.11106,0.69098 6.58093,-0.37543 13.10618,-1.38348 19.62672,-2.30824 2.06124,0.0705 6.92846,-1.93832 8.67667,-0.2106 0.44848,0.44323 0.36347,1.20757 0.54521,1.81136 0,0 -0.17949,0.2149 -0.17949,0.2149 l 0,0 c -1.32495,0.77074 -2.59595,1.64277 -3.97485,2.31222 -3.3559,1.6293 -6.85942,1.92382 -10.49738,2.41534 -6.63823,0.95427 -13.27168,2.043 -19.96274,2.54862 -3.15216,0.0788 -6.27358,-0.12625 -9.3924,-0.60404 0,0 6.0472,-6.87054 6.0472,-6.87054 z" />
    </g>
  </g>
</svg>
